/* XPM */
static char *_232a54051ec4b8ea392ae98ea970348lEftiEzi7ibvxSvB[] = {
/* columns rows colors chars-per-pixel */
"80 80 110 2 ",
"   c black",
".  c #050101",
"X  c #0B0303",
"o  c #0D0303",
"O  c #0F0404",
"+  c #080908",
"@  c #100404",
"#  c #140505",
"$  c #1B0707",
"%  c #091209",
"&  c #111211",
"*  c #191A19",
"=  c #220909",
"-  c #240A0A",
";  c #280B0B",
":  c #2B0C0C",
">  c #2D0C0C",
",  c #330E0E",
"<  c #370F0F",
"1  c #3B1010",
"2  c #122412",
"3  c #1B371B",
"4  c #212321",
"5  c #2A2C2A",
"6  c #323432",
"7  c #3B3D3B",
"8  c #411212",
"9  c #461313",
"0  c #481313",
"q  c #4D1515",
"w  c #521616",
"e  c #561717",
"r  c #5D1919",
"t  c #6A1D1D",
"y  c #6D1D1D",
"u  c #721F1F",
"i  c #751F1F",
"p  c #772020",
"a  c #7A2121",
"s  c #7C2121",
"d  c #234823",
"f  c #2C5A2C",
"g  c #374B37",
"h  c #356D35",
"j  c #3E7F3E",
"k  c #404340",
"l  c #434643",
"z  c #444644",
"x  c #434A43",
"c  c #434D43",
"v  c #444A44",
"b  c #444F44",
"n  c #435443",
"m  c #445244",
"M  c #445744",
"N  c #445844",
"B  c #465E46",
"V  c #476247",
"C  c #476547",
"Z  c #446844",
"A  c #456C45",
"S  c #486548",
"D  c #486948",
"F  c #496E49",
"G  c #457445",
"H  c #467F46",
"J  c #497349",
"K  c #497649",
"L  c #4A784A",
"P  c #4B7F4B",
"I  c #727F4E",
"U  c #7D7B50",
"Y  c #812323",
"T  c #842323",
"R  c #852424",
"E  c #882525",
"W  c #8D2626",
"Q  c #902727",
"!  c red",
"~  c #9D6D55",
"^  c #887652",
"/  c #927153",
"(  c #468846",
")  c #4B824B",
"_  c #4B844B",
"`  c #4B8C4B",
"'  c #4C8E4C",
"]  c #479147",
"[  c #4D924D",
"{  c #4E974E",
"}  c #4E9A4E",
"|  c #4E9D4E",
" . c #67834C",
".. c #4FA74F",
"X. c #50A050",
"o. c #50A750",
"O. c #50A950",
"+. c #50AD50",
"@. c #51B351",
"#. c #52B652",
"$. c #52BB52",
"%. c #53BC53",
"&. c #53C253",
"*. c #53C453",
"=. c #54C354",
"-. c #54C754",
";. c #55C855",
":. c #56CC56",
">. c #58CF58",
",. c #C2B6B6",
/* pixels */
"                                                                                                                                                                ",
",.                      ,.                          ,.                                                                                                          ",
"                                                                                    ,.                                          ,.                              ",
"                                                                                                                                                                ",
"                                                                                                                                                    ,.          ",
"                                                                                                              ,.                                                ",
"                                                                                                                                                                ",
"                    W Q Q Q Q Q Q                     e E Q W #   @ E Y s w                     E Q W ,                   9 p E Q Q Q Q Q R                     ",
"                    Q E s W E E Q                     @ W Q Q r   9 < i E O                     E Q Q ,                   9 u W W Q Q Q Q R                     ",
"                    Q R a Y Y W Q                       w Q Q W > ; @ 1 w                       R Q Q ,                   9 Q W p W Q Q Q R                     ",
"                    Q E s 0 = = =                       o E Q Q W ; < < O                       a Q u ,                   O = = E Q Q q = $                     ",
"                    W E R 9 = = O                         q Q Q W E R 9                         E E @ ,                         R W Q <                         ",
"        ,.          Q p R Q Q Q 9                         X E W Q Q E X                         W E e ,                         R W Q <                         ",
"                    W Q Q Q Q Q 9                           q Q Q Q q           ,.              W R E ,                         R Q Q <                         ",
"                    E Q Q Q Q Q 9             ,.            t Q Q Q t                           E Q Q ,                         Y Y Q <                 ,.      ",
"                    W Q Q ,                               = Q Q Q Q Q -                         W Q Q ,                         E Q Q <                         ",
"                    W Q Q ,                               t Q Q Q Q Q y                         E Q Q ,                         E W E <                         ",
"                    W Q Q 0 = - =                       = Q Q Q Y Q Q Q -                       W Q Q ,                         E E a <                         ",
"                    E Q Q Q Q Q Q                       y Q Q R O u R Q u                       Q Q Q ,                         E E R <                         ",
"                    W Q Q Q Q Q Q                     ; W Q Q 8   8 Q Q Q :                     W Q R ,                         E s T <                         ",
"                    Q Q Q Q Q Q Q                     y Q Q R .   . Y Q Q i                     E Q Q ,       ,.                R Q W ,                         ",
"                                                                                                                                                                ",
"                                                                                                                                                                ",
"                                                                                                                                                                ",
"                                                                                                                                                                ",
"                                                ,.                                                                                                              ",
"                                                                                                                                                                ",
"                        ,.                                      % 2 d f h j ] ] ] ] j j h f 3 2                                                     ,.          ",
"                                                          % d h ] ] ] ] ] ] ] ] ] ] ] ] ] ] ] ] ] j d 2                                                         ",
"                                                      d j ] ] ] ] ] ] ] ] ] ] ] ] ] ] ] ] ] ] ] ] ] ] ] j 3                                                     ",
"                                                  2 j ] ] ] ] ] ] ] ] ] ] ] ] ] ] ] ] ] ] ] ] ] ] ] ] ] ] ] j d                                                 ",
"                                              % h ] ] ] ] ] ] ] ] ] ] ] ] ] ] ] ! ] ] ] ] ] ] ] ] ] ] ] ] ] ] ] f %                                             ",
"          ,.                                % j ] ] ] ] ] ] ] ] ] ] ] ] ] ] ] ] l ] ] ] ] ] ] ] ] ] ] ] ] ] ] ] ] j %                                           ",
"                                          % ] ] ] ] ] ] ] ] ] ] ] ] ] ] ] ] ] ] l ] ] ] ] ] ] ] ] ] ] ] ] ] ] ] ] ] j %                                         ",
"                                          j ] ] ] ] ] ] ] ] ] ] ] ] ] ] ] ] ] ] l ] ] ] ] ] ] ] ] ] ] ] ] ] ] ] ] ] ] j %                                       ",
"                          ,.            h ] ] ] ] ] ] ] ] ] ] ] ] ] ] ] ] l l l l l l l ] ] ] ] ] ] ] ] ] ] ] ] ] ] ] ] f                                       ",
"                                      2 ] ] ] ] ] ] ] ] ] ] ] ] ] ] ] ] l l l / ,.~ l l l l ] ] ] ] ] ] ] ] ] ] ] ] ] ] ] 2                                     ",
"                                      f ] ] ] ] ] ] ] ] ] ] ] ] ] ] ] ] ] U ~ ~ ~ ~ ~ ,.I ] ] ] ] ] ] ] ] ] ] ] ] ] ] ] ] f                                     ",
"                                      j ] ] ] ] ] ] ] ] ] ] ] ] ] ] ] ] ] ~ ~ ,.~ ~ ~ ~ ~ ] ] ] ] ] ] ] ] ] ] ] ] ] ] ] ] j                                     ",
"                                      ] ] ] ] ] ] ] ] ] ] ] ] ] ] ] ] ] ] I ~ ~ ~ ~ ~ ~ ^ ] ] ] ] ] ] ] ] ] ] ] ] ] ] ] ] ]                                     ",
"                                      ] ] ] ] ] ] ] ] ] ] ] ] ] ] ] ] ] ] ]  ./ / ~ U  .] ] ] ] ] ] ] ] ] ] ] ] ] ] ] ] ] ] ,.                    ,.            ",
"                                      h ] ] ] ] ] ] ] ] ] ] ] ] ] ] ] ] ] ] ] H b l G ] ] ] ] ] ] ] ] ] ] ] ] ] ] ] ] ] ] j                                     ",
"      ,.                              f ] ] ] ] ] ] ] ] ] ] ] ] ] ] ] ] ] ] ( l l l l Z A ] ] ] ] ] ] ] ] ] ] ] ] ] ] ] ] f                                     ",
"                                + 4 6 b ] ] ] ] ] ] ] ] ] ] ] ] ] ] ] ] G l n l l l l l l ] ] ] ] ] ] ] ] ] ] ] ] ] ] ] ] g 4 &                                 ",
"                          + 4 l l l l l G ] ] ] ] ] ] ] ] ] ] ] ] ] ] ] l l l l l l l l l ] ] ] ] ] ] ] ] ] ] ] ] ] ] ] G l l l 7 5 &                           ",
"                    + 4 7 l l l l l l l l l ] ] ] ] ] ] ] ] ] ] ] ] ] ] l l l l l l l l x N l l b b A ] ] ] ] ] ] ] ] ( l l l l l l l 7 4                       ",
"                  4 l l l l l l l l l l l l l l ] ] ] ] ] ] ] ] ] ] ] ] b l l l l l l x N N l l l b A ] ] ] ] ] ] ] l l l l l l l l l l l 7 4                   ",
"              + 6 l l l l l x l l l l l l l l l l l ] ] ] ] ] ] ] A l l x x M l l l l N ] ] ] ] ] ] ] ] ] ] ] ] l l l l l l l l l l x l l l l 7 +               ",
"              6 l l l l l b v M l l l l l l l l l l l l ] ] ] ] ] A l l b A H b l l l H ] ] ] ] ] ] ] ] l l l l l l l l l l l z l M b b l l l l 7               ",
"            5 l l l l l N ) } } V l l l l l l l l l l l l l l l ] ] ] ] ] ] ] A b l H ] ] ] ] l l l l l l l l l l l l l l l l l B } | L B l l l l 5             ",
"            l l l l l B } %.:.&.D x l l l l l l l l l l l l l l l l l l l l l l l l l l l l l l l l l l l l l l l l l l l l l x B $.>.&.X.N l l l 7             ",
"          l l l l l m } ;.-.;...N x l l l l l l l l l l l l l l l l l l l l l l l l l l l l l l l l l l l l l l l l l l l l l l N o.-.-.-.` m l l l l           ",
",.      l l l l l l N O.-.-.-.' m l l l l l l l l l l l l l l l l l l l l l l l l l l l l l l l l l l l l l l l l l l l l l l l b { ;.-.-.+.V l l k l l         ",
"        l l l l l l D &.>.-.X.N l l l l l l l l l l l l l l l l l l l l l l l l l l l l l l l l l l l l l l l l l l l l l l l l l N } $.>.%.V v l l l l         ",
"        l l k l l l V [ ' L B l l l l l l l l l l l l l l l l l l l l l l l l l l l l l l l l l l l l l l l l l l l l l l l l l l l B L | | V l l k l l         ",
"        l l l l l l l m v c l l l l l l l l l l l l l l v L K b l l l l l l l l l l l l l l l l l l m K C x l l l l l l l l l l l l l b b M l l l l l l         ",
"        l l l l l l l l x l l l l l l l l l l l l l l b ) %.%.V v l l l l l l l l l l l l l l l l v K *.+.F l l l l l l l l l l l l l l x l l l l l l l         ",
"          l l l l l l l l l l l l l l l l l l l l l l V @.;.=.P l l l l l l l l l l l l l l l l l m [ ;.;.+.B l l l l l l l l l l l l l l l l l l l l           ",
"            l l l l l l l l l l l l l l l l l l l l l P -.-.-.' l l l l l l l l l l l l l l l l l l [ -.-.-.) l l l l l l l l l l l l l l l l l l l             ",
"            5 l l l l l l l l l l l l l l l l l l l l } ;.-.;.) l l l l l l l l l l l l l l l l l l P -.-.;.| l l l l l l l l l l l l l l l l l l 5   ,.        ",
"            + 7 l l l l l l l l l l l l l l l l l l l P =.:.%.Z l l l l l l l l l l l l l l l l l l V %.;.;._ b l l l l l l l l l l l l l l l l 7               ",
"              + 5 l l l l l l l l l l l l l l l l l l V %.#.K x l l l l l l l l l l l l l l l l l l l F +.%.F v l l l l l l l l l l l l l l l 6                 ",
"                + 4 7 l l l l l l l l l l l l l l l l b J J v l l l l l l l l l l l l l l l l l l l l x S K m l l l l l l l l l l l l l l 7 4                   ",
"                    + 4 7 l l l l l l l l l l l l l l l l l l l l l l l l l l l l l l l l l l l l l l l l l l l l l l l l l l l l l l 7 4                       ",
"                          & 5 l l l l l l l l l l l l l l l l l l l l l l l l l l l l l l l l l l l l l l l l l l l l l l l l l 7 4 &                           ",
"                              ,.+ 4 6 l l l l l l l l l l l l l l l l l l l l l l l l l l l l l l l l l l l l l l l l l 7 7 4 &                                 ",
"                                      + + * 5 6 7 l l l l l l l l l l l l l l l l l l l l l l l l l l l l l l 7 6 4 4 &                                         ",
"                                                  + + & * 4 5 5 6 6 7 7 l l l l l l l l 7 7 7 6 5 5 4 4 & & ,.                                                  ",
"                                                                                                                                                                ",
"                                                                                                                                                                ",
"                                                                                                                                                                ",
"                                                                                                                                          ,.                    ",
"                                                                                                                                                                ",
"  ,.                                  ,.                                                                                                                        ",
"                                                                                                                                                                ",
"                                                                                  ,.                                                                            ",
"                                                                                                                                                                ",
"                                                                                                                                                                ",
"                                                                                                                                                                ",
"                                                                                                                                                                "
};
