/* XPM */
static char *_246ea96f0804cf7924816423e28f979SuJm59TLOgU2Y2dC[] = {
/* columns rows colors chars-per-pixel */
"80 80 6 1 ",
"  c black",
". c #060606",
"X c #0B0B0B",
"o c gray6",
"O c #111111",
"+ c gray9",
/* pixels */
"                                                                                ",
"                                                                                ",
"                                                                                ",
"                                                                                ",
"     OOOOO                                                             OO       ",
"    OO                                                                  OOO     ",
"   O                                            OOOOOOOOOOOOO             O     ",
"  O                            OOOOOOO                       OO           O     ",
" OO                       OOOOO                               OO                ",
" O                                                              OO              ",
"                                                                 OO             ",
"                                  XXooOOOOoooX..                  OO            ",
"                O              XOOOOOOOOOOOOOOOOoX.                OO           ",
"              OO            XoOOOOOOOOOOOOOOOOOOOOOoX               OO          ",
"             OO           XOOOOOOOOOOOOOOOOOOOOOOOOOOoX              O          ",
"           OO           .oOOOOOOOOOOOOOOOOOOOOOOOOOOOOOo.             O         ",
"           O           XOOOOOOOOOOOOOOOOOOOOOOOOOOOOOOOOOX            OO        ",
"          OO          oOOOOOOOOOOOOOOOOOOOOOOOOOOOOOOOOOOOo            O        ",
"          O         .OOOOOOOOOOOOOOOOOOOOOOOOOOOOOOOOOOOOOOo.           O       ",
"          O        .OOOOOOOOOOOOOOOOOOOOOOOOOOOOOOOOOOOOOOOOo.          O       ",
"         O        .OOOOOOOOOOOOOOOOOOOOOOOOOOOOOOOOOOOOOOOOOOo.         OO      ",
"         O        OOOOOOOOOOOOOOOOOOOOOOOOOOOOOOOOOOOOOOOOOOOOo                 ",
"        O        oOOOOOOOOOOOOOOOOOOOOOOOOOOOOOOOOOOOOOOOOOOOOOo                ",
"        O       oOOOOOOOOOOOOOOOOOOOOOOOOOOOOOOOOOOOOOOOOOOOOOOOX               ",
"        O      .OOOOOOOOOOOOOOOOOOOOOOOOOOOOOOOOOOOOOOOOOOOOOOOOO.              ",
"        O      oOOOOOOOOOOOOOOOOOOOOOOOOOOOOOOOOOOOOOOOOOOOOOOOOOo              ",
"       O      XOOOOOOOOOOOOOOOOOOOOOOOOOOOOOOOOOOOOOOOOOOOOOOOOOOOX             ",
"       O      OOOOOOOOOOOOOOOOOOOOOOOOOOOOOOOOOOOOOOOOOOOOOOOOOOOOo             ",
"       O     .OOOOOOOOOOOOOOOOOOOOOOOOOOOOOOOOOOOOOOOOOOOOOOOOOOOOO.            ",
"       O     oOOOOOOOOOOOOOOOOOOOOOOOOOOOOOOOOOOOOOOOOOOOOOOOOOOOOOo            ",
"      O     .OOOOOOOOOOOOOOOOOOOOOOOOOOOOOOOOOOOOOOOOOOOOOOOOOOOOOOO.           ",
"      O     XOOOOOOOOOOOOOOOOOOOOOOOOOOOOOOOOOOOOOOOOOOOOOOOOOOOOOOOX      O    ",
"      O     oOOOOOOOOOOOOOOOOOOOOOOOOOOOOOOOOOOOOOOOOOOOOOOOOOOOOOOOo      O    ",
"      O     OOOOOOOOOOOOOOOOOOOOOOOOO+++++++OOOOOOOOOOOOOOOOOOOOOOOOO.     O    ",
"      O    .OOOOOOOOOOOOOOOOOOOOOOOO+++++++++OOOOOOOOOOOOOOOOOOOOOOOO.     O    ",
"           XOOOOOOOOOOOOOOOOOOOOOOO+++++++++++OOOOOOOOOOOOOOOOOOOOOOOX     O    ",
"           XOOOOOOOOOOOOOOOOOOOOOO+++++++++++++OOOOOOOOOOOOOOOOOOOOOOo     O    ",
"           oOOOOOOOOOOOOOOOOOOOOO+++++++++++++++OOOOOOOOOOOOOOOOOOOOOo     O    ",
"           oOOOOOOOOOOOOOOOOOOOOO+++++++++++++++OOOOOOOOOOOOOOOOOOOOOo     O    ",
"           OOOOOOOOOOOOOOOOOOOOOO+++++++++++++++OOOOOOOOOOOOOOOOOOOOOO     O    ",
"           OOOOOOOOOOOOOOOOOOOOOO+++++++++++++++OOOOOOOOOOOOOOOOOOOOOO     O    ",
"           OOOOOOOOOOOOOOOOOOOOOO+++++++++++++++OOOOOOOOOOOOOOOOOOOOOO     O    ",
"           oOOOOOOOOOOOOOOOOOOOOO+++++++++++++++OOOOOOOOOOOOOOOOOOOOOO     O    ",
"   O       oOOOOOOOOOOOOOOOOOOOOO+++++++++++++++OOOOOOOOOOOOOOOOOOOOOo          ",
"   O       oOOOOOOOOOOOOOOOOOOOOOO+++++++++++++OOOOOOOOOOOOOOOOOOOOOOX          ",
"   O       XOOOOOOOOOOOOOOOOOOOOOOO+++++++++++OOOOOOOOOOOOOOOOOOOOOOOX          ",
"   O       .OOOOOOOOOOOOOOOOOOOOOOOO+++++++++OOOOOOOOOOOOOOOOOOOOOOOO.          ",
"    O       OOOOOOOOOOOOOOOOOOOOOOOOO+++++++OOOOOOOOOOOOOOOOOOOOOOOOO           ",
"    O       oOOOOOOOOOOOOOOOOOOOOOOOOOOOOOOOOOOOOOOOOOOOOOOOOOOOOOOOO           ",
"    O       XOOOOOOOOOOOOOOOOOOOOOOOOOOOOOOOOOOOOOOOOOOOOOOOOOOOOOOOX           ",
"    OO      .OOOOOOOOOOOOOOOOOOOOOOOOOOOOOOOOOOOOOOOOOOOOOOOOOOOOOOO.           ",
"     O       oOOOOOOOOOOOOOOOOOOOOOOOOOOOOOOOOOOOOOOOOOOOOOOOOOOOOOO            ",
"     O       .OOOOOOOOOOOOOOOOOOOOOOOOOOOOOOOOOOOOOOOOOOOOOOOOOOOOO.     O      ",
"              OOOOOOOOOOOOOOOOOOOOOOOOOOOOOOOOOOOOOOOOOOOOOOOOOOOOO      O      ",
"              .OOOOOOOOOOOOOOOOOOOOOOOOOOOOOOOOOOOOOOOOOOOOOOOOOOOX      O      ",
"               oOOOOOOOOOOOOOOOOOOOOOOOOOOOOOOOOOOOOOOOOOOOOOOOOOo       O      ",
"               .OOOOOOOOOOOOOOOOOOOOOOOOOOOOOOOOOOOOOOOOOOOOOOOOO.      O       ",
"                XOOOOOOOOOOOOOOOOOOOOOOOOOOOOOOOOOOOOOOOOOOOOOOOX       O       ",
"                 oOOOOOOOOOOOOOOOOOOOOOOOOOOOOOOOOOOOOOOOOOOOOOo       OO       ",
"               O  oOOOOOOOOOOOOOOOOOOOOOOOOOOOOOOOOOOOOOOOOOOOO.       O        ",
"               O   OOOOOOOOOOOOOOOOOOOOOOOOOOOOOOOOOOOOOOOOOOO.       OO        ",
"               O    OOOOOOOOOOOOOOOOOOOOOOOOOOOOOOOOOOOOOOOOO.        O         ",
"               O     oOOOOOOOOOOOOOOOOOOOOOOOOOOOOOOOOOOOOOo.        OO         ",
"                O     oOOOOOOOOOOOOOOOOOOOOOOOOOOOOOOOOOOOo         OO          ",
"                O      XOOOOOOOOOOOOOOOOOOOOOOOOOOOOOOOOOX          O     O     ",
"                 O      .oOOOOOOOOOOOOOOOOOOOOOOOOOOOOOo.          OO     O     ",
"     O           O        XOOOOOOOOOOOOOOOOOOOOOOOOOOoX           OO      O     ",
"      O           O         XoOOOOOOOOOOOOOOOOOOOOOoX            OO      OO     ",
"      O           OO           XoOOOOOOOOOOOOOOOoX.             OO       O      ",
"       O           OO             .XooOOOOoooXX                OO        O      ",
"        O           OO                                        OO        O       ",
"        OO            OO                                    OO          O       ",
"          O             O                                 OO           O        ",
"                         OO                             OOO            O        ",
"                           OOOOO                 O                    O         ",
"                                OOO       OOO   OO                    O         ",
"                                             OOO                                ",
"                                                                                ",
"                                                                                ",
"                                                                                "
};
