/* XPM */
static char *_949771f16b44a55c6a866eb524470a56o9X4BEUQv2TXDt4[] = {
/* columns rows colors chars-per-pixel */
"80 80 256 2 ",
"   c None",
".  c #331B17",
"X  c #38231B",
"o  c #040D32",
"O  c #05153A",
"+  c #090E2B",
"@  c #34262B",
"#  c #231820",
"$  c #43221C",
"%  c #482B24",
"&  c #4C3228",
"*  c #56362A",
"=  c #573A36",
"-  c #4E3131",
";  c #643D35",
":  c #683833",
">  c #664339",
",  c #74473E",
"<  c #5D413A",
"1  c #021444",
"2  c #021B4B",
"3  c #051946",
"4  c #031D54",
"5  c #111D42",
"6  c #08234B",
"7  c #03245C",
"8  c #072757",
"9  c #142D55",
"0  c #2A3551",
"q  c #022C63",
"w  c #042B67",
"e  c #07336A",
"r  c #173969",
"t  c #012D74",
"y  c #033373",
"u  c #043C7C",
"i  c #083977",
"p  c #123C72",
"a  c #2A3968",
"s  c #031C61",
"d  c #4F3B48",
"f  c #07437B",
"g  c #184679",
"h  c #11426F",
"j  c #294568",
"k  c #364A69",
"l  c #264776",
"z  c #395378",
"x  c #314E74",
"c  c #374157",
"v  c #5B484A",
"b  c #6B4945",
"n  c #764B44",
"m  c #7A534B",
"M  c #6F5658",
"N  c #465979",
"B  c #4E556E",
"V  c #54627B",
"C  c #74646D",
"Z  c #84564B",
"A  c #885C54",
"S  c #8A4F4D",
"D  c #98675A",
"F  c #8E6559",
"G  c #A1695D",
"H  c #A1725E",
"J  c #9A6B64",
"K  c #8D7072",
"L  c #A36D64",
"P  c #A57264",
"I  c #AB7568",
"U  c #AC7A73",
"Y  c #B0807B",
"T  c #043D84",
"R  c #093989",
"E  c #034384",
"W  c #03448B",
"Q  c #054A8C",
"!  c #0A4888",
"~  c #044C94",
"^  c #024D9C",
"/  c #064895",
"(  c #04529C",
")  c #0B549B",
"_  c #0A5497",
"`  c #155697",
"'  c #134F8A",
"]  c #2D588C",
"[  c #326698",
"{  c #044DA4",
"}  c #0454A3",
"|  c #0355AC",
" . c #035BAC",
".. c #0959A7",
"X. c #145BA4",
"o. c #025DB2",
"O. c #035CBC",
"+. c #0657B5",
"@. c #1456AF",
"#. c #0963AB",
"$. c #1965A6",
"%. c #0263B5",
"&. c #0364BB",
"*. c #0469BC",
"=. c #0A68B8",
"-. c #126EB9",
";. c #286CAA",
":. c #3273B0",
">. c #1B61A0",
",. c #4A5C84",
"<. c #4A6587",
"1. c #566887",
"2. c #486796",
"3. c #557297",
"4. c #687796",
"5. c #6C738D",
"6. c #4875A7",
"7. c #5979A6",
"8. c #4A79B1",
"9. c #657CAA",
"0. c #065EC2",
"q. c #046CC3",
"w. c #0667C5",
"e. c #0273CA",
"r. c #0776C8",
"t. c #0678D8",
"y. c #0E6ECE",
"u. c #0777E5",
"i. c #3876C2",
"p. c #887B89",
"a. c #A97791",
"s. c #72819D",
"d. c #5386B4",
"f. c #6783A8",
"g. c #7987A7",
"h. c #728FB4",
"j. c #3088D2",
"k. c #0D8EE9",
"l. c #2796E6",
"z. c #198BD7",
"x. c #518EC7",
"c. c #729AC6",
"v. c #76A9CF",
"b. c #52AFEA",
"n. c #72B4EA",
"m. c #53A3DA",
"M. c #6FC4F1",
"N. c #8E8493",
"B. c #B58F96",
"V. c #848CA9",
"C. c #8696B6",
"Z. c #969BB9",
"A. c #9192AC",
"S. c #B198AB",
"D. c #98A4BA",
"F. c #89A3B9",
"G. c #B9ABBB",
"H. c #ADA6B5",
"J. c #C88C97",
"K. c #C696A8",
"L. c #D599A9",
"P. c #CD96B2",
"I. c #C6A7A9",
"U. c #C5A9B5",
"Y. c #D8A7B6",
"T. c #CAB4B8",
"R. c #D9B5BC",
"E. c #D4A5AE",
"W. c #E3AEBB",
"Q. c #869CC8",
"!. c #8AA5C8",
"~. c #98A8C7",
"^. c #97ABD5",
"/. c #9BB6D6",
"(. c #8DB0D3",
"). c #A5AAC7",
"_. c #A7B3CB",
"`. c #B6B5C9",
"'. c #A9B8D5",
"]. c #B5BBD6",
"[. c #B2ABC8",
"{. c #91B7E5",
"}. c #AAB8E3",
"|. c #A79EC0",
" X c #D9B8C5",
".X c #CBB5C8",
"XX c #E8B9C6",
"oX c #F3BCCA",
"OX c #E8B3CD",
"+X c #DB9EC0",
"@X c #A8C2DB",
"#X c #B9C4DA",
"$X c #ABC2CC",
"%X c #92CBF2",
"&X c #A8C9E5",
"*X c #B9C9E5",
"=X c #B8D6E9",
"-X c #B7D7F5",
";X c #A9D1F2",
":X c #B9E3F8",
">X c #8FC4DE",
",X c #D9C5C8",
"<X c #C7C7D9",
"1X c #D3CAD8",
"2X c #D4D3DC",
"3X c #CACAD6",
"4X c #E8C7CA",
"5X c #F3C7CC",
"6X c #EAC9D2",
"7X c #F4CBD3",
"8X c #F6C7D2",
"9X c #E9D4DA",
"0X c #FCDBDB",
"qX c #F7D4D7",
"wX c #EED1CE",
"eX c #FAE1DE",
"rX c #CBCDE2",
"tX c #C5CCE7",
"yX c #CCD2E5",
"uX c #C5D3EB",
"iX c #CBD3EB",
"pX c #C9D9EA",
"aX c #D4D4E4",
"sX c #D4DBEC",
"dX c #DBDBEB",
"fX c #D8D7E7",
"gX c #C9D9F5",
"hX c #D3DCF3",
"jX c #D6DCF5",
"kX c #D0CCE6",
"lX c #E5DCE7",
"zX c #FADBE3",
"xX c #E2DDF2",
"cX c #DBE2EC",
"vX c #C8E5F8",
"bX c #D4E3F3",
"nX c #DCE3F4",
"mX c #DCEBFB",
"MX c #D8E7F9",
"NX c #CFE8F2",
"BX c #E3E4ED",
"VX c #E8E4E9",
"CX c #FCE6E8",
"ZX c #E4E5F3",
"AX c #E4EBF5",
"SX c #EBEDF5",
"DX c #E4ECFA",
"FX c #EAECF9",
"GX c #ECF2F6",
"HX c #EDF3FC",
"JX c #E8F4FB",
"KX c #F2F5FB",
"LX c #F5FAFD",
"PX c #FAFBFD",
"IX c #F5F6F7",
"UX c #F5EEF6",
/* pixels */
"                              n.y.w.w.+.{ )                                                                                                                     ",
"                              l.u.u.t.w.0.0.O.o.o.o.#.#...X.Q !                                                                                                 ",
"                            b.u.u.u.t.w.w.&.*.&.&.&.&.w.w.&.w.w.w.&.j.n.%X%Xv.6.                                                                                ",
"                            l.k.w.y.y.w.w.&.&.&.O.O.w.&.&.&.=.=.=.=.-.X.$.;.;.;.=.=...`                                               oX6X                      ",
"                            l.t.e.0.+.O.O.O.O.O.O.w.&.#.;.x.v.>X;X-X-X-X-X&X{.(.c.x.i.-.$.]                                           Y.8X                      ",
"                          m.z.y.+.@.i.:...+.O.0.O.-.x.>XvXMXNXpXuXbXhXyXiXhXhXMXMXmXmXvX-X@Xc.f.                                      a.Y.6X                    ",
"                          j.w.+.i.{.{.{.` | w.o.d.&XvXMXMXuX*X*X^.C.gXiXiX*XuXuXuXtXiXuXtXkXaXsXsXjXnXtX                              B.W.qX                    ",
"                          y.O...n.(.{.x.+.O.$.v.-XpXMXpX^.*XuX^.a 9 #XiXuXN C.iXiX*X1.tXtXuXh.*X*XtX*X'.#X                              XXqX                    ",
"                        +.O.+...n.n.:.@.+.$.>X=XNXnXsX@X9 V uXa 6 O B hXC.9 0 rXiX<.r C.uX!.p 3.iX*X] f.@XiX          L.8X7X            Y.7X      9XVX          ",
"                      @.o.+.+.+.y.o.+.+.$.>X=XMXbXMXhXN j z <.z <.<.N A.N z 1.5.C.h u l &Xg ! e @Xd._ ! 2.'.pX4.        L.5X7X          B.7X9X    zXzX9X        ",
"                      O.| | | 0.y.0.+.` >X=XMXbXuX_.pX<.<.2.7.3.f.h.g.s.g.g._.V.0 h E u g ' ~ ! [ _ } ( Q [ '.&X[ :.    B.W.7XzX        B.5X7X  U.7X4X6X      zX",
"                    +.o.| +.| O.y.O.) v.=XMXbXbX$X5.#X3.7.7.f.c.h.!._.~.).).'.].g.j g i E ( ^ ../ ( ..#._ ! 3.=Xd.-.;.c.  I.4XzXzX        XX6X    K.4XzX    6XCX",
"                  ) 0.+.+.+.+.O.y.| d.=XNXMXnXMX~.1.h.f.h.h.h.!.}.C.*X*X#X#X].#X_.s.,.e i _ ...._ ~ ~ ) Q E g h.&X` =.-.d.].S.5XqXlX      XX0X    K.XX6X    XX4X",
"                  y.O.| +.+.+.+.+.:.:XNXbXsXnXmXC.4.h.h.^.}.c.!.*XtX).uXaXaXiX<X].D.V.N 9 f _ ! f E E ! u u f g _.f.Q o.=.;.f.U.7XzXVX    4XzX7XY.L.W.4X  K.Y.XX",
"                @.y.| ^ { +.O.| >.;XvXbXhXD.#XmXg.g.!.~.'.*X'.!.&XMX#X^.gXiXsXfXrX<XD.A.5.e u E E f E u y u Q y 3.@Xi ~ ( ..$.9..XzXCXCXqX0X0XqXXX5X0XCX0XXXXX6X",
"              ;.y.0.} ..{ O.+.` >XvXgXjXjXD.5.@XV._.].'.'.uXiX}.^.pXhX^.^.gXyXdXfXaX`.V.).1.9 i f f E u i u _ u h @X] ! Q ^ { ' A.OX0XeXzX0XqXqX5X5X0X0X0X0XqX  ",
"              t.y.O.| { | | ) v.vXpXbXMXnXD.4.1.D.tXtXtX'.tXjX}.^.'.sXtXQ.*XbX2XdXfX`.B #X).0 3 e f E E T u ) ! e h.3.e T W T E k U.5XqX0XqX5XqX7X5X7XqXqX0XzX  ",
"            q.t.l.&.+.| | ( d.vXgXuXtXbXMX~.g.s.].rXrXtX'.tXiX*X^.^.kXfX#X~.uXsXfXdXyXB <X#XV.O O 8 u Q u u ) T q <.g.9 4 4 3       Y.wX0X7X7XqX5X4X4X5X5XqX0X  ",
"          :.w.r.l.t.t.+.} >.:XuXgX*XB ~.MXD.V.Z.#XrXrX#X'.tXtXiX}.).tXdXdX'.!.gXsXfXfXH.[.<X*Xz 6 O 4 i e y _ u q z ~.              B. X7XwX5XwX7X4X5XXXXX5XqX  ",
"          j.{ z.l.k.u.=._ >XpXiXgX'.k N D.).~.).].<XyX#X].].#XhXtX_.'.hXfXtXh.!.tXfXjXiXH.3XsX!.p e 3 2 4 i ! y q l                   T.0X0XqX5XqXwX7X5X5X7XzX  ",
"        ` :.T b.k.k.u.} c.gXiXhXhX~.k ,.Z._._._.`.<XyX<X].].tXuXtX'.C.}.].kX`.A.Z.G.<XxX.X3XaXuX] Q y e w ' u e i g ^.                T.CXCXCXwXqX0XqX5X5X7XzX9X",
"      ' R u E b.k.k.0.[ vX&X/.gXhXC.k <.).].'._._.<XrXrX].].].'.tX].A.|..XU.C X . @ M 2XfX2X2XbX6._ u f u ' e e f g !.                9XCXCXCX0XwX0XqXqX7X0XzX9X",
"    ] _ t w w :.k.t./ &X=X[ g 3.uXg.k <.'.].#X).Z.`.].tX).'.'.).<XG.p.M - # X @ X X X M aXfX3XnXh.X.u E ~ ! q y E ' !.                zXCXCXCXCXeXeX0XqXqX0XzX9X",
"    ..! 4 q w u l.O.d.vX6.' h r k <.k 1.].].].).V.].).].D.Z.).A.p.K n . % v b * & & & # 3XaX3XnXc.$.T W _ u 7 y Q ] Q.#X        9XzXzXCXCXCXCXCXCXCX0X0X7X0XzX9X",
"  ..} e 1 4 q t @.X.-X(.) ! j j j j z 1.].<X#XD.g.'.Z.N.v = M b n A , % = X . % X & & X B.aX<XnX(.;.E / ~ w 7 i Q ] (.'.        K.XXzXCXCXCXCXCXCXCXCX0X0XqX0X9X",
"....E 7 1 2 q y u v.:X>.X.l k k k j N 4.#X<X*XZ.5.G.K d b m b m A D m $ % d % = = = - & C BX3XnX}.:.Q ~ E 7 7 u Q [ /.~.        B.E.7XzXCXCXCXCXCXCXeX0X0X0X0XCX",
"O.~ y 4 1 2 q y ] vXh.) ] z k k x z 1.4.#X<XtXZ.K b n F b . - b A D F ; . * b n m , * & v SXfXhX&Xd.Q ~ e 2 7 E ! [ (.@X        B.Y.XXqXzX0XzXCXCXCXeXwX7XwXqXCX",
"..T w 2 1 2 q e c.:X>.` l N N k k ,.3.4.#XrXiXp.m Z F n n % b m A D D Z % $ ; n A Z ; & X lXdXyX*Xd._ f 7 2 q f E [ !.pX              I.R.4XqXqXqXqX0XwX5X4X6XVX",
"^ t 7 2 1 4 w ] &Xv.` y j V V B N 1.4.4.#XyXsXp.m D D A F A A A D G G D ; $ % n Z n ; & X .XxX<X*Xd.' e 2 1 7 ! ' 8.(.sX                  H. X,X,X4XwXwXwXwX,XUX",
"W t 4 1 1 4 w h.pX[ ) e 0 N 1.B B 1.4.4.].aXfXN.Z D P L P L L G G G G L Z * X * n n ; & X S.ZXyX*Xd.! 7 1 2 7 i Q d./.iX                    ,X,X4X4XwXwXwXwX9XUX",
"y w 4 1 O 7 l '.@X' } e 9 N 1.N c 1.4.g._.fXfXS.m H P I I I P I P D D L J b % X > n > & % K FXyX#Xh.g 2 3 8 q y ! h.@XsX                    1XT.4X4XwXwXwX,XVXGX",
"t q 4 1 O 7 9.@Xv.X.} e 6 z <.V c V 4.g.D.aXaXU.m H I I I I I I I D J L J > . % b n > & = C FXsX].Q.9 1 8 q y f ! c.#XfX                  UXUX9XT.4X4XwX4X,XSXGX",
"t 7 2 1 O 9 ^.=Xd..._ h 9 z V V B B 4.g.V.rXfX,XA D P I I I U I L D S A Z * % & = > > * < K xXjX].^.a 6 e i f Q ' v.*XcX                  KXKXKXVX,X,X4X,X,XIXKX",
"t 7 2 1 1 z '.gX` #.f e z N 1.1.V c 4.g.V.<XfX9XK D P I I I I I P L D J A Z > - $ % b * = K fXnX#X'.z q i f W Q ` !.pXZX                  PXLXHXSX9XT.4X4X9XHXKX",
"t q 4 1 1 f.'./._ ) e 9 x z 1.5.5.B 1.g.V.].sXlXU F P P I I I P D D D D A n * $ . ; m * - p.3XZX#X'.2.p i E Q ~ [ !.pXZX                  PXPXLXHXSXT.R.4XVXGXKX",
"R s 1 1 6 (.@Xc.) ` 6 O 6 j ,.4.4.B V g.V._.aXfXB.J P P I I I D Z A S S , : : * % = m * v A.3XZX<X#X3.p y E ~ _ 8.~.hX2X                IXPXPXPXLXIX9XS.,XUXHXKX",
"      a [ /.*Xf.Q ' O + O 9 z s.V.5.V g.g.~.pXaXG.U F I P I P F : S S S A S , : * ; > % K S.<XZXyX#X7.r y E ~ _ x./.MX                  PXPXLXPXLXKXUXT.T.UXHXKX",
"        7.^.uXx ! r o + O 6 a 4.V.4.V g.g.~.iX2X.XM = F I P P D F L L G S S S , > = * - G.Z.<XxXfX#Xf.p i E ~ _ c.#XZX                  PXPXPXLXKXKXSX9X.XKXHXKX",
"        f.!.uXg ] 2 1 2 6 8 r N g.V.5.5.V.).iXrX3X@ M > P P H H D P L D D D A n > * % K 1X[.rXdXdX'.9.p f E Q ` (.uXZX                PXPXPXLXLXKXKXGXBXBXHXHXLX",
"        ~.&X&X` i e ! ~ _ ! f x 3.Z.g.5.C.).tXrX<X@ @ M A D D D D P P L J D D Z * % & ,X.X<X2XlXnX'.2.g E E Q [ /.hXyX                PXPXPXLXLXKXKXGXBXKXHXHXLX",
"          :X;X$.) $.=.r.r.-.#.' ] g.Z.s.C.~.<XaX<XB # # M F D D D L L J J A Z n % . = 3XrX<XaXlXnX~.x i E Q Q c.'.nX                  PXPXPXLXKXKXKXSXBXKXHXHXLX",
"          $X;X>.#... .r.r.r.#.Q ] <.Z.V.h.Z.<XaX<X5.d # # M F Z Z Z m m b = * % . & S.dX<XfXfXVXnXg.9 e E Q ! (.*XMX                  PXPXLXLXKXKXHXSXSXHXHXKXLX",
"              6.` ..=.r.e.e.*.#.f l 4.C.C.g.tXaX<XN.C @ # - F J D A m b * = > v K 2XVX`.<XdXfXBXbXx 6 7 u ! ] '.bXhXiX                PXPXLXKXKXKXSXAXKXHXHXKXLX",
"                  8.$.=.r.t.t.r.-.` ] h.g.g.#XaX<XA.p.B @ # M U Y Y U U U U B.1XSX1XS.`.lX2XdXnX=Xj q 7 q f 6.gXpXbX=XR / / '         PXLXIXKXKXHXSXAXKXHXHXKXLX",
"                  vX;Xx.$.=.r.r.z.r.$.[ h.g._.fX<X<XN.5.0 # b K J.I.T.T.T.1XdXrX`.H.`.fXZX<XZXcXpXF.s.5.1.N ~.sXpXMXh.Q ~ ^ / ` r   IXPXLXIXHXKXHXSXSXKXHXHXKXLX",
"                    DXmX-Xv.$.#.r.r.r.X.[ C.C.hX<X1XZ.5.d @ = F B.I.U.G..X[.~.).G.G.2XAXfX<XZXBXGXLXDXZXZXbX#X<XbX=X' ( W ) / ..i D.PXLXKXIXGXHXFXAXHXKXHXHXKXLX",
"             X        AXmXmXvX(.:.:.x.d.z g.C.sX<X<X<XA.v - = A Y B.B.B.S.G.`.G.G.,XVXnXyXtXZXdXIXLXJXDXDXcXaXyXgX2./ { / W { ..' sXPXKXKXIXHXHXSXAXKXHXHXHXKXLX",
"          K.OX          2XGXHXJXmXmXDXJXbXD.A.#XdX<X<X<XN.d b F U B.B.S.I.I.T.U..XVXnXsXrX_.jXdXIXLXHXGXAXdXlXfXaXh./ ^ / E ..} [ HXIXIXHXIXHXJXSXAXKXHXHXHXKXLX",
"          a.L.Y.              H.#X=XpXbXpXcX<X#XtXrXrX<X3XN.K B.B.B.B.J.I.T.T.,XlXxXiXrXH.[.dXdXKXPXIXUXnXcXdXfX<X*X;.( } / ^ _ f.LXLXIXKXHXJXJXAXAXHXJXHXHXKXPX",
"          a.L.Y.                a R R !.#X].iXtXiXiXhXdX1XG.G.1XzXT.I.I.I.T.,XfX2XrX`.A.p.aXdXdXLXLXLXZXcX#X^.r e e X.| ..) W ' #XLXLXIXHXHXGXJXAXJXJXJXHXHXKXPX",
"U.          Y.XX                    ;.d.-XgXhXgXhXjXjXjXnXdXsX].kX1X,XT. X1X2X#X`.A.A.N.G.ZXfXcXPXPXHXcXcXsXl ! T y .. .%.} E ] GXPXKXHXHXHXGXAXAXHXJXHXHXHXKXLX",
"+X          B.W. X           X    DX%X:.-XjXhXsXjXnXDXDXFXAXjXtXtXyXaX1X3X2X<X`.H.Z.Z.A.ZXZXaXBXPXPXZXcXVXfXr ~ Q y .. .%.} E f.PXPXKXHXJXHXSXAXAXHXJXHXHXHXKXLX",
"P.          N.OX6X          S.oXOXlX>Xm.-XMXDXDXjXZXAXAXAXSXAXbXMXDXZXfX<XdXlX.XH.H.Z.3XAXcX2XKXPXUXcXBXVXxXl ! ! y .. .%.} f '.PXLXKXHXJXHXFXAXJXJXHXHXKXKXKXLX",
".XOX           XXX4X          Y.oXwX/.b.;XMXMXMXyXiXyXsXAXBXBXdXcXnXAXZXaX<XKXIXSX2X`.AXAXaXBXLXPXBXBXZXBXZX,.! ! y ) }  ...g AXPXKXHXHXGXSXAXAXHXJXHXHXKXKXHXLX",
"[.P.          S. XXX          a.E. X*Xj.v.pXsXbXiXsXsXsXDXJXFXAXZXdXaXyXrX#XBXGXGXcX<XkXdXZXLXPXUXBXG.V V V.7.' T y ( }  .) 3.PXLXKXHXSXSXSXAXAXJXJXHXHXKXKXKXLX",
"a.P.OX           XXXOX        a.K. XpXx.d.vXMXMXsXnXHXAXAXHXKXLXLXFXnXsXtX<XfXaX#X#X<XyXZXKXLXPXSXBXA.6 5 V.C.9.i t ~ ( ( _ ~.PXLXKXHXFXDXAXAXDXDXDXJXJXHXKXLXLX",
"S.P.Y.OX XT.  .X XXXoX X      K.XX6XpXm.:.vXMXnXsXaXAXKXKXKXLXLXPXLXSXZXcXaXrXyXtX#XaX<X<XHXLXGXZXxXH.6 3 5.).~.] y W ~ ~ ` bXPXKXKXHXFXAXAXAXDXAXDXJXHXKXKXLXLX",
"S.Y.B.K. X XXXXXoXoXXXXXI.B.a.P.XX6XtXv.:.vXnXmXbXgXhXMXDXHXHXLXLXLXKXHXDXnXcXsXuX].#XtX#XcXGXGXBXlXaX9 2 9 ).).V.e E W ! ] HXPXKXKXHXJXAXAXSXAXAXJXLXLXKXKXKXHX",
"S.Y.OXP.P.XXoXoX5XoXXXL.K.J.K.K.XX6XaXvX&XcXsXpXpX*X'.).)._._.'.#X#XuXhXbXsXyXrXuX*X*X].#XsXaXSXBXBXAXN 6 8 h.).~.l T W u 7.LXPXKXKXHXSXAXAXSXJXHXLXLXHXHXHXHXHX",
"G.P.OXOXXXXX5X5X7X6XXXL.J.J.J.L.W.6XlXmXJXHXHXHXJXcXyXrX<X#X#X'.'./.~.g.1.B V 5 5 9 k C.*X@X0 B V 5.5.x 4 y [ _.).7.u W y C.PXPXKXKXGXSXAXHXKXHXHXLXLXHXHXHXHXDX",
"S.P.Y.P.W.5X8X8X7X7XXXE.J.J.L.Y. X6XlXmXmXJXJXJXJXAXDXMXgXuX'.h.] r 7 8 z g.A.4.9 8 q e ] g 8 8 9 8 e w 7 u ' /._.~.i E e D.PXPXKXGXGXSXAXHXKXHXHXHXHXHXHXHXJXDX",
"P. X X XW.oX8X8X7X5X5XY.L.J.K.Y.XX6X1X'.@X&X&X^.g.g.3.] l p i u Q / / / g 2.C.Z.1.q W Q E u w 7 i ! ! y q W ) h.].].g ! e F.PXPXKXGXSXAXGXHXHXHXHXHXHXHXHXHXJXmX",
"K.OXoXoXXXoX8X8X8X8X5XXXY.K.L.Y.XX6X1Xr e p i y y y E Q / ~ ~ ( } } |  ._ i 1.).).[ #...E g 7 e ! / W y q ~ X.,.].].2.Q y g.PXLXKXGXAXAXJXHXJXHXHXKXHXHXHXJXmXMX",
"  S.Y.XXXXXXoX8X8X8X8X8XoXY.Y.R.XXXX1X] ..( } ...... . .o.o. .o.o.%.o. .( T 8 g.'.^.$.) y 8 w ) #.~ Q t y ( ) r ].`.h.! y 1.LXPXKXGXAXFXJXJXJXHXHXHXHXHXHXJXMXvX",
"        B.Y.XXoXoX5X5X8X8X5XY.XX4XXXkX;.w.&.&.&.&.&.&.&.&.&.&.&.%.o.| { W T Q ` Q.*X:...' p e ..%.~ W t u ( ) w ).`.!.! y j HXKXHXSXAXAXAXAXJXJXHXHXHXHXJXDXMXgX",
"            K.XX8XoX8X8X8X8X8X6X4X4X1X:.w.w.&.&.&.&.*.&.%.%.o.o.| { / R / ( %.w.;.*Xc.#...) ) =.o.} / t W ..( i g.`.'.g y e #XKXJXAXcXnXnXAXDXJXJXHXHXJXJXmXMXgX",
"              K. XXX8X8X7XqX7X7X6X4X2X:.q.*.w.w.w.&.&.&.o.| { ^ / / ^  .w.-.*.y.$.'.&X#.%.| o.=. .| / t ~ ..^ ! z [._.] e q 4.HXDXsXcXbXbXDXDXDXJXJXJXJXDXMXgX-X",
"                B.P.W.oX8X7X6X7X6X6X9Xv.y.q.q.w.w.O.o.| { { ^ } | o.*.r.w.| } %.-.F.vX$. .| &.*. ...W T }  .^ / r ).).7.w w j gXpXhXhXbXnXnXmXDXDXJXJXJXmXMXgX-X",
"                  a.K.L.XXXX6X7XwX7XwXgX;.r.q.*.&.o.o. . . .o.%.*.q.r.q. .} }  .r.F.AX:... .&.&. . .T T }  .^ ~ i C.~.C.q w 8 k '.pXpXpXsXbXnXmXmXDXDXDXmXvXgX;X",
"                    S.K.E.XX7X9X6XwX4XnXv.r.q.*.O.o.%.*.&.*.*.q.q.e.q.o.^ } ^ =.-.D.SXf.} %.*.%.%.} T ~  . .^ ~ ! <.~.!.r 7 7 6 6 1.'.uXiXpXbXbXMXmXmXMXMXgX-X;X",
"                  ^.|.I.R.XX7X6X6XwX9XcXmXd.y.*.%.&.*.*.*.q.q.q.e.e.&.} ^ { ^ -.X.~.SX(.( *.*.%...^ T } #...^ ~ E l ~.Z.N 8 7 2 3 3 5 <.'.uXpXhXbXMXMXbXgXgX-X%X",
"                &X{.).U.R.XX4X6X4X4XlXBXPXNX;.-.*.*.&.*.q.q.q.q.e.e.o.^ ~ ^ ^ r.~ _.SX#X_ *.*.%...R ( #.%...( ~ E r C.C.4.2 4 2 2 3 3 O O 1.].pXuXgXgXgXgX-X;Xn.",
"              =X;X%X~.K.R.4X4X6X4X XAXGXPXGX=X;.#.*.*.q.q.e.e.q.e.w.| / W /  .r.W '.SXpX` *.&.%.^ / %.%.%...( ~ W i 3.V.4.6 2 2 2 1 1 O o + + V '.*X-X-X;X;X%Xb.",
"              ;X%X%X^.S.Y.4X4X6X4X,XAXHXPXGXDX=X6.( =.*.e.e.e.q.e.&.^ T E / *.q.W @XBXbX$.*.w.o.^ o.&.%.%...( ~ W u l h.4.9 1 1 1 1 O O o + + + O 1.!.{.{.n.b.l.",
"            -X%X%X%X{.H.U.4X6X7XR.9XAXKXPXHXDXDXbX6.) -.r.e.e.e.q.o./ u T ^ r.&.~ '.2X*X;.*.&.}  .*.%.%.%...} ( W T p f.3.j 1 O O O o o +   + + o o 6 [ x.j.z.r.",
"          gX;X;X%XM.n.[.G.,X6X7XT.VXSXLXPXKXmXAXSXAX[ ..r.e.e.q.*.| T y T } r.&.) !.aXpX8.*.o.o.=.*.&.o.=...} ( / W f e 3 3 3 O o 5 0 k k     + o o 1 8 i X.#.%.",
"          vX-X:X;XM.M.[.I. X5X X,XSXAXLXLXJXmXFXHXKX'.i *.r.e.q.%.{ u t T #.r.q.) C.ZXAXx.%.&.q.*.*.&.o.*. .} ..^ ~ Q e 2 o o 0 ,.3.2.2.]       + o O 7 q t f W ",
"        bXvXvXvX:X%XM./.U.R.4XT.lXSXAXLXLXGXAXAXUXLX#Xe ..r.e.*. ./ t w W y.q.e...f.ZXZXv.*.q.w.%.*.#. .=.#.} ..} ) ! 8 5 k 3.3.6.6.2.2.2.k       + O 4 q w t u ",
"        mXMXMXvXvX-Xm./.U.R.R.T.SXAXGXLXLXGXAXDXHXLX*X9 y =.r.*.} T w w ( y.e.e...7.AXZX(.=.&.%.*.&.#.=. .%. ...` p 0 4._.^.c.9.6.6.6.2.,.B           2 7 q t y ",
"      cXDXmXmXMXMXvX%X/.U.E.Y.,XHXDXJXLXLXSXSXDXKXKXpX9 7 ) *.o./ t 7 t #.r.e.q. .6.AXBX/... .o.&.=.o.-.o.%.#.' 9 5.kXyX*X}.^.Q.c.9.8.7.a d             3 2 7 e "
};
