/* XPM */
static char *cd196f30d9d1466fd93858608880ef48skJmtvYabv2PwRoh[] = {
/* columns rows colors chars-per-pixel */
"80 80 227 2 ",
"   c #000000",
".  c #0A0606",
"X  c #0C0906",
"o  c #0B0708",
"O  c #0D0B0B",
"+  c #160A07",
"@  c #140C0B",
"#  c #1A0E0D",
"$  c #13100E",
"%  c #1B110E",
"&  c #150E11",
"*  c #190F12",
"=  c #111111",
"-  c #1B1312",
";  c #1D1916",
":  c #1C1419",
">  c #1D1A19",
",  c #23130E",
"<  c #2E140F",
"1  c #231614",
"2  c #2C1613",
"3  c #241915",
"4  c #2B1A15",
"5  c #22161A",
"6  c #251B1B",
"7  c #2B1C1A",
"8  c #371B15",
"9  c #331C16",
"0  c #331E1A",
"q  c #20201F",
"w  c #2D211C",
"e  c #342217",
"r  c #34231C",
"t  c #3C231C",
"y  c #3E281E",
"u  c #221D24",
"i  c #2C2323",
"p  c #2E2B2B",
"a  c #342422",
"s  c #3C2622",
"d  c #3C2B25",
"f  c #332D2B",
"g  c #3D2D2A",
"h  c #3D3538",
"j  c #41261C",
"k  c #44291E",
"l  c #452421",
"z  c #452B22",
"x  c #4A2D23",
"c  c #472B2A",
"v  c #4B2E29",
"b  c #542D28",
"n  c #473026",
"m  c #4C3125",
"M  c #43322C",
"N  c #4C322B",
"B  c #53342A",
"V  c #55362A",
"C  c #5A352C",
"Z  c #5B3A2E",
"A  c #482E31",
"S  c #4C3632",
"D  c #463836",
"F  c #4B3C36",
"G  c #563835",
"H  c #5D3C32",
"J  c #64292F",
"K  c #613D2F",
"L  c #633E32",
"P  c #673A35",
"I  c #753539",
"U  c #4D403A",
"Y  c #58413C",
"T  c #654135",
"R  c #6A4236",
"E  c #64433C",
"W  c #6B453B",
"Q  c #6E493D",
"!  c #73453B",
"~  c #78443E",
"^  c #734A3C",
"/  c #7A4D3F",
"(  c #593E44",
")  c #7A3740",
"_  c #7D3B41",
"`  c #4F4343",
"'  c #554643",
"]  c #594A45",
"[  c #5C4D49",
"{  c #55514C",
"}  c #5F504A",
"|  c #5F5353",
" . c #664845",
".. c #6D4942",
"X. c #754743",
"o. c #744C42",
"O. c #7A4C43",
"+. c #665149",
"@. c #63534C",
"#. c #755246",
"$. c #7C5145",
"%. c #76514A",
"&. c #7C544B",
"*. c #7D594E",
"=. c #655552",
"-. c #6A5A55",
";. c #685559",
":. c #6B5C5A",
">. c #785654",
",. c #715F5B",
"<. c #6F605F",
"1. c #74625D",
"2. c #79665F",
"3. c #715E64",
"4. c #746464",
"5. c #786767",
"6. c #7B6964",
"7. c #78696D",
"8. c #7D6C6C",
"9. c #844A47",
"0. c #90444E",
"q. c #825345",
"w. c #83554B",
"e. c #89564B",
"r. c #84594C",
"t. c #8B5B4D",
"y. c #935B4E",
"u. c #9A4F56",
"i. c #8D5451",
"p. c #855C53",
"a. c #8C5D53",
"s. c #8B5957",
"d. c #845C5B",
"f. c #975556",
"g. c #925E53",
"h. c #955D59",
"j. c #9A5E5B",
"k. c #A25C58",
"l. c #856055",
"z. c #8D6154",
"x. c #86625D",
"c. c #8C635A",
"v. c #946255",
"b. c #996356",
"n. c #94645A",
"m. c #9B655A",
"M. c #96695B",
"N. c #9D6B5C",
"B. c #A0655D",
"V. c #A9645E",
"C. c #A26C5E",
"Z. c #A4705F",
"A. c #A8705C",
"S. c #A75765",
"D. c #886765",
"F. c #816E6D",
"G. c #9D6561",
"H. c #926C63",
"J. c #9C6B63",
"K. c #9E6F69",
"L. c #85716D",
"P. c #89746F",
"I. c #9E7366",
"U. c #816F71",
"Y. c #847273",
"T. c #8A7675",
"R. c #8C7976",
"E. c #867679",
"W. c #8A7779",
"Q. c #8C7A7B",
"!. c #927D7D",
"~. c #997B79",
"^. c #A16562",
"/. c #A36D62",
"(. c #A96E65",
"). c #A36B6B",
"_. c #A57263",
"`. c #AA7366",
"'. c #A5746C",
"]. c #AC756A",
"[. c #AE796D",
"{. c #B0776D",
"}. c #B2796E",
"|. c #B07B71",
" X c #98827C",
".X c #BA8176",
"XX c #927E81",
"oX c #8C8681",
"OX c #958284",
"+X c #9A8586",
"@X c #978488",
"#X c #9B8689",
"$X c #91898D",
"%X c #9E8A8C",
"&X c #9D908D",
"*X c #A48A84",
"=X c #A18C8E",
"-X c #B0948C",
";X c #A38E91",
":X c #A88F92",
">X c #A69193",
",X c #AA9395",
"<X c #AD9A96",
"1X c #AC9699",
"2X c #AE999B",
"3X c #B09799",
"4X c #B59C98",
"5X c #B29B9D",
"6X c #B6A09E",
"7X c #BAA29E",
"8X c #9F99A1",
"9X c #B49EA1",
"0X c #B6A1A3",
"qX c #BBA4A4",
"wX c #BFA8A5",
"eX c #BDA6A9",
"rX c #BEA9AA",
"tX c #B9AEB2",
"yX c #C1A6A4",
"uX c #C1A9A6",
"iX c #C3ACAC",
"pX c #C6B1AC",
"aX c #C9B3AD",
"sX c #C5AEB1",
"dX c #CBB4B0",
"fX c #CBB7B4",
"gX c #D2BDB9",
/* pixels */
"                                                                                                                                                                ",
"                                                                                                                                                                ",
"                                                                                                                                                                ",
"                                                                                                                                                                ",
"          = = = = =                                                                                                                           = =               ",
"        = =                                                                                                                                     = = =           ",
"      =                                                       6 g w w a w @ O . . .             = = = = = = = = = = = = =                           =           ",
"    =                                                     - g D i 1 - 1 7 3 % @ @ @ @ O @ X .                             = =                       =           ",
"  = =                                               : w g a 3 # - # @ # - 7 % @ O o . O X # % O .                           = =                                 ",
"  =                                           . . - d d 7 - # & @ O O & - 1 1 & O o o o . O X X $ . .                           = =                             ",
"                                            . . - F S a 1 - - & = & O & - 1 * & @ . . O o . o o O % X                             = =                           ",
"                                          . . # M M a 3 - : : : = @ @ & 6 1 - # @ . O O . . . o o X 1 O                             = =                         ",
"                                =       . . - M g 7 5 5 6 5 : - & O = - 5 1 1 # @ = o o . . . o o . . - .                             = =                       ",
"                            = =       . . - M d r i a 6 5 5 - - # : * - 3 3 # @ @ @ = O O o . . . . X . %                               = =                     ",
"                          = =         . X d a a a a 7 3 - @ @ - a a 3 - @ - 7 7 a 3 # @ - @ . . . . o o @ = O                             =                     ",
"                      = =             X r 0 g g r a 7 # @ - d Y $.$.W l 2 7 s N H B z 2 # # @ O . . O O @ 3 = = O                           =                   ",
"                      =             . - d g M r w 7 @ # a G %.a.a.t.e.~ b v E ^ ^ ^ T B t 2 # # O . . O @ 3 = = = O                         = =                 ",
"                    = =           . @ d s r 7 a 7 # - c ..r.b.b.b.b.g.t.e.O.$.$.O./ ^ R Z x 0 # @ . . . @ @ ; = = = O                         =                 ",
"                    =               1 M r w 7 a 1 # c *.v.m.m.b.m.b.b.g.g.a.q.q./ q.^ ! L C v 9 # o . . X @ 3 = = = = O .                       =               ",
"                    =             . w e 3 7 a a - 0 o.v.m.m.C./.^.N.b.b.b.g.e.q.q.q./ ! R L C z , @ . . . O - - = = = = O .                     =               ",
"                  =               . r 4 4 w 7 1 # N p.n.m.C./.(._._.N.g.b.b.t.e.q.q./ ^ R R Z v 9 # . . . O @ ; = = = = = O .                   = =             ",
"                  =             . . r 7 4 7 7 1 3  .a.b.N.C./._.`._./.m.m.g.t.e.q.q.O.^ ! R K B t 1 @ . . o O - = = = = = = O                                   ",
"                =             .   - r 3 3 , 1 - a o.v.b.C.C./._._._./.m.b.b.t.t.e.q.O.^ W R L C z 9 # O o o O - = = = = = = = O                                 ",
"                =               @ - r 3 % 1 - & g w.v.b.m.N.C././._._.J.m.b.g.a.a.e.q.^ W L L C z r 1 o o . X - = - = = = = = = O                               ",
"                =             . = ; e 3 # % * # S w.g.b.m.C././._._._._.m.n.v.v.v.a.w.$.o.W H B z t 3 X . . O @ = = = = = = = = = .                             ",
"                =             = = ; 7 % # % # - B w.t.b.m.N.J.K.'.'.'.'./.J.b.b.v.s.p.%.E G N s t t 4 @ . . O X = - = = = = = = = O                             ",
"              =             O = = 3 3 % - % # - H r.t.n.z.d.D.d.x.x.H.J.K.).J.a.p.%.N 7 1 3 1 - % 4 e , o o . o = - - = = = = = = = O                           ",
"              =             = - = 3 1 1 - @ - # W r.a.*.Y G G A A S  .%.>.n.n.p.W 0 - - 7 d s a 3 1 r 4 @ X X X ; = = = = = = = = = O                           ",
"              =           . = = = 3 1 1 1 @ - - X.r.*.r d c A A S H E %...%.s.$.z r N Q *.$.X.T m r t t , @ o o 2 - = = = = = = = = = .                         ",
"              =           O = - = 6 1 7 % @ - 1 o.r.G ] *.n.M.n.r.$.q.r.p.c.J.O.k B R s 1 , r c B m x z 4 X O @ 2 6 = = = = = = = = = O                         ",
"            =           . = = = = w 7 4 1 # # 0 $.a...d.n.z.H 1 @ g B $.t.M.J.q.j k s h u # ` 0 k v B m y X # r < 7 = = = = = = = = = = .                       ",
"            =           O = = - ; a E d 1 # # N w.v.n.v.$.v 3.* & ;.%.w.t.b.m.r.m 9 d ;.a A S v v C Z B n # 4 k < = = = = = = = = = = = O             =         ",
"            =           O = = : w q.! x w 6 * E t.N.N.b.q.O.d.>.( ..X.a.t.b.m.b.W 8 8 H P P R T R T C N m , 0 z 8 = = = = = = = = = = = O             =         ",
"            =           = = = : > y.f.W 1 1 1 o.v.N._.m.N.n.v.a.w.w.s.a.g.m.N.N.9.v 8 z W X.O.q.$.^ Z N m , 2 t 3 = = = = = = = = = = = = .           =         ",
"            =         . = = = : = g.k.m.c 0 7 &.n.A._._._._./.J.J.G.b.n.m.^.^.G.s.C t k L X.q.t.t.^ H B n 4 2 t = = = = = = = = = = = = = .           =         ",
"                      O = = = = = >.V.B.).! B *.N._.`.`.[.[.].`./.C.C.N.C./.m.B.h.P z t C X.q.t.r.^ Z B z r < s = = = = = = = = = = = = = O           =         ",
"                      O = = = = = i V.V.(.i.X.&.N._.`.[.}.}.].`./.(.`././.^.G.^.n.O.x t k W $.q.$.Q V m z 9 2 e = = = = = = = = = = = = = O           =         ",
"                      O = = = = = = F V.].f.n.$.N._.`.[.}.}.}.].].`.].(.B.j.G.).G.i.H 8 t B $.&.O.W V m y , t 3 = = = = = = = = = = = = = O           =         ",
"                      O = = = = = = = F (.m.m.s.M.I.`.].].].{.[.}.[.[.(.h.m.^.).).s.W N 8 l W $.O.W C m t 0 z 6 = = = = = = = = = = = = = O           =         ",
"                      = = = = = = = = = >.(.i.J.M.N.`.`.].].{.}.|.[.`./.^./.^.).).s.L t r t E &.X.R C x t 8 t = = = = = = = = = = = = = = =           =         ",
"                      = = = = = = = = = : )._.~ M.N.`.`.].].].].}.].`.(.j.~ O.s.a.X.t 2 8 v $.$.X.T C x t t s = = = = = = = = = = = = = = =           =         ",
"                      = = = = = = = = = = x._./.c.I._.`.`.`.`.[.].`._.(./.j.G.h.O.C z l B H o.$.^ T B x y t $ = = = = = = = = = = = = = = =           =         ",
"                      O = = = = = = = = = 6 |./.n.I.`._._.`.].].`._.N.N.N.n.J.z.p.e.R m x x V T Q T B x > = = = = = = = = = = = = = = = = =           =         ",
"      =               O = = = = = = = = = = +..X{._.`._.`.`.`.`./.n.p.M.n.m.m.a.a.g.O.P Z v 9 k X.K m x = = = = = = = = = = = = = = = = = O                     ",
"      =               O = = = = = = = = = = = n.b.l._._._._.`._.v.o.r.b.i.i.i.i.9.P b l l 8 2 L w.K x z = = = = = = = = = = = = = = = = = O                     ",
"      =               O = = = = = = = = = = = = d Y '._./._._.C.r.C P I _ _ _ ) I J J b l 0 B &.r.Z x z = = = = = = = = = = = = = = = = = O                     ",
"      =               . = = = = = = = = = = = = > g I.`._._._.Z.t.$.m.h.u.u.S.u.0.9._ J m z C w.q.C z d = = = = = = = = = = = = = = = = = .                     ",
"        =               = = = = = = = = = = = ; w 3 %.`.`./._.Z.n.m._./.J.m.j.e.O.! W H C B H $.^ B z ; = = = = = = = = = = = = = = = = =                       ",
"        =               O = = = = = = = = : 4 % 3 , S J._._._.C.m./._._./.N.b.e.X.w.O.Q L H L Q K x z = = = = = = = = = = = = = = = = = =                       ",
"        =               O = = = = = = = > 9 + 3 7 % S z.N.N.Z.N.N./._._._.N.m.b.g.t.O.! T L Z Z m z t : = = = = = = = = = = = = = = = = O                       ",
"        = =             . = = = = = = 6 e , 7 4 - D D.N.v.N.N.m.N._._._.C./.N.N.m.v.t.^ L Z B x z z g 1 > = = = = = = = = = = = = = = = .                       ",
"          =               O = = = = > d s r 4 3 W.7XH.C.v.t.v.M.N.N._._._._.K.m.v.M.v.o.H B x z z k , @ 3 = = = = = = = = = = = = = = =                         ",
"          =               . = = = ; r 7 1 # 3 3.pX-XH.C.C.a.q.t.v.M.N.N.n./.K.h.a.c.a.W B y k z j z M @ > = = = = = = = = = = = = = = .           =             ",
"                            = = - r - % - 1 - 9XaX7Xc.A.C.m.t.q.O.Q #.*.r.p.*.%...&.o.G r 7 t j j x d F i = = = = = = = = = = = = = =             =             ",
"                            . = 6 - ` ,X+XT.5XiXdXyXH.A.B.m.v.t.r.w.Q H B N n m m N z r 4 4 k k k x r d F @.D = = = = = = = = = = = O             =             ",
"                              O : 8.gXaXuX X XuXdXiX*XN.C.m.b.b.g.g.t.z.&.N s N z z z t z k k k z x w g U ] -.6.[ > = = = = = = = O               =             ",
"                              p 2XdXpXiXiXqX*X*XdXpX4Xc.m.C.m.b.v.v.b.m.m.v.t.$.O.W H B x x k x v x a ' ;.} +.+.F.-.@.: = = = = = .             =               ",
"                          &XpXuXuXpXiXqXyXiX7X~.uXpXuX*Xv.C.C.m.b.b.m.m.N.N.n.a.r.$.W H m x x B B k a 8.4.@.@.F 8.:.@.@.: = = = O               =               ",
"                        8XgXfXiXqX4XyX5X5XiXiX4X=XsXiX7XD.N.C.C.m.b.m.m.m.m.n.z.r.$.W Z B x x Z B 8 :.Y.,.@.@.=.Y.:.@.+.@.- = O               = =               ",
"                        tXiXuXpXuX4X<X3X3XqXsXuX5X5XiXqX4Xx.N.C.m.m.m.m.n.v.v.a.w.o.W H B x B H B ] W.6.-.@.[ 8.8.,.+.+.] :.` D i     .       =                 ",
"                    = $XpXpXiXiXiXqX3X=X*X5XuXsXuX3X0X0X0X3Xx.n.N.m.m.N.n.v.v.a.&.X.W H B B H H  .Q.F.:.-.@.:.W.8.:.} ] 4.7.U.Y.Y.Y.F.8.5.4.f =                 ",
"              $ { <XuXyXqXqX0XqXqXiXqX3X=X*X3XiXsXrX5X5XqXOX3Xd.n.N.m.J.M.n.v.a.&.O.W H B Z T +.!.Y.1.-.@.:.W.T.5.=.[ 4.8.U.F.U.8.F.8.8.4.1.-.'                 ",
"          O &XyX7XqX4X4X<X3X3X3X0X>XiXqX3X:X+X>XiXiXrX5XqXT.#X1XD.v.N.N.N.M.n.s.r.O.W Z C E >.XXT.6.-.@.=.W.W.F.8.Y.Y.Y.U.Y.8.F.8.Y.8.5.6.4.:.=.f               ",
"        oXpX7X<X<X,X>X1X>X>X1X1X;X0X>XuXqX5X>X+X>XiXiXrXrX*X-.>X>X~.p.N.N.n.v.z.r.O.T Z H D.+XR.6.-.@.4.T.W.T.W.E.Y.Y.Y.F.Y.F.8.8.8.4.<.4.:.@.=.@.O             ",
"    . 0XaXuX<X=X=X=X=X>X1X>X>X,X:X;X>X1XeXqX5X>X+X;XiXiXuX<XF.Q.1X>X+Xd.n.n.c.a.&.W T H ~.*XR.Y.Y.T.!.Y.!.R.W.Q.T.Y.Y.U.F.8.:.=.:.Y.Q.Q.E.U.,.F U U =           ",
"  q pXpXuXqX1X*X=X=X;X;X,X1X,X>X1X>X,X1XqXeXqX5X>X#X>XiXiX5XF.1XT.>X%X*XP.c.a.e.X.W >.+X#X*X;X=X+XOXY.Y.Q.Q.Q.E.Y.F.6.-.] =.Y.!.XXOXOXXXQ.W.U.4.} U -           ",
"oXpXiXwX7X5X1X=X=X=X:X:X>X3X5X1X3X5X,X>XqXeXeX0X5X1X=X>XqX6XF.9X5X!.>X>XQ.~.D.~.=X;X=X=X;X>X=X=XL.OXE.Q.!.T.8.-.] @.:.8.Q.XXOXOXOX+XOXOXXX!.Q.Y.8.<.h           ",
"aXiXwX7X3X3X1X=X=X=X>X:X>X1X5X5X5X5XqX3X>XrXeX0X2X>X>X1X5XqX1.5X9X1X*X+X>X1X>X;X>X1X>X>X>X=X;X5X=.Y.8.-.] ' -.Y.OX!.W.Q.XXOX+X#X%X#X#X+X#XOXOXXXW.Y.:.f         ",
"pXuXqX5X3X5X3X;X=X;X;X>X>X:X3X5X5X3X0XeX0X2XqX9X5X1X1X2X5XqX,.1X9X5X>X;XQ.XX%X;X>X>X#XXXY.5.8.2X:.=.] @.Y.OX@X#X+XOXQ.OX@X%X%X=X%X%X%X%X%X#X#X+XOXQ.8.:.h       ",
"uXqX0X5X3X3X3X>X=X;X>X>X1X>X>X2X5X3X5XqXqX0X5X5X2X1X1X2X9XqX-.>X9X2X;XXXW.W.Q.Q.@X%X#X+XOXXX+X2XW.F.@.-.Q.#X@X#X%X%XOX#X%X%X%X=X=X%X%X%X%X%X#X+X+XOXY.4.:.U     ",
"uXqX0X5X2X5X2X,X=X;X>X>X>X1X>X1X3X5X1X9XqXqX5X2X5X1X1X2X9XeX1.@X1X>X%X+XOXOXOX#X%X;X;X=X%XOX@X>XQ.Y.@.4.OX%X%X=X=X=X%X#X%X%X%X;X=X=X%X%X%X%X%X%X#XOXT.Y.5.:.`   ",
"qXqXqX5X<X2X5X,X=X;X>X>X;X1X1X1X1X2X1X1X5X0X0X5X5X5X2X5X9XrX6.Q.1X1X;X%X#X%X%X;X>X>X>X%X%XOX%X>XOXT.,.W.;X=X%X=X=X%X=X%X%X%X=X;X=X=X=X=X%X%X%X%X%X@XW.Y.U.4.:.f ",
"eXeXqX5X1X1X5X1X=X;X>X1X>X>X2X2X1X1X1X1X1X5X5X0X9X9X5X5X5XrXF.E.>X1X>X;X;X;X;X>X>X;X=X%X%X#X%X1X+XQ.1.OX;X%X%X=X=X=X;X%X%X=X;X;X=X=X;X;X=X=X=X%X%X@XW.E.E.8.4.| ",
"eXuXrX0X1X1X2X1X=X>X>X1X1X>X1X5X2X1X1X1X1X2X5X5X5X9X5X5X5XrXL.U.>X,X>X>X>X;X>X>X=X=X=X%X%X%X%X1X#XR.1.OX;X%X%X=X=X;X;X%X=X;X=X;X=X;X;X=X;X=X=X=X%XOXW.Q.W.Y.5.:.",
"eXuXiXeX1X>X1X>X;X>X1X1X1X>X1X2X2X2X1X1X1X2X2X2X5X5X5X5X9XrXP.5.>X,X>X>X>X>X>X>X=X=X=X%X%X%X%X2X%XL.1.OX;X%X%X=X;X>X;X%X=X;X;X;X=X;X>X>X>X;X;X=X%X!.W.Q.!.W.E.-.",
"eXeXiXrX5X>X>X>X=X1X1X2X2X1X>X1X5X2X1X1X1X2X2X1X2X2X5X5X9XeXT.4.;X1X>X>X>X>X>X>X;X=X=X=X=X=X%X2X%XL.4.#X%X;X%X=X>X>X;X=X;X;X=X=X;X>X>X>X>X>X;X=X+XW.W.OXOXQ.W.[ ",
"qXeXiXiXqX>X=X;X=X>X2X5X5X5X1X>X1X2X2X1X1X1X2X2X2X2X2X5X5XeXR.4.;X>X>X>X>X>X>X>X>X;X=X=X;X=X%X2X=X8.6.%X%X%X%X;X>X>X;X;X>X;X=X=X>X>X>X>X>X>X>X%X!.Y.W.@X#XQ.5.} ",
"0XeXiXiXqX1X#X%X=X>X1X5X5X5X5X>X>X1X2X1X1X1X2X2X2X2X2X2X5XeX X4.;X>X>X>X>X>X>X>X>X>X;X>X>X;X=X9X%X2.F.%X%X%X=X;X>X>X;X>X;X;X;X=X;X;X;X>X>X1X>X%XY.8.OX%X%X#X4.=.",
"5XeXrXsXrX3X+X#X=X>X1X5X5X5X5X2X>X>X1X1X1X1X1X1X2X1X1X2X5XqX+X:.;X>X>X>X>X>X>X>X>X>X>X>X>X>X;X5X%X1.Y.%X%X%X;X>X>X>X;X>X;X%X=X;X;X;X;X>X1X1X>X+X4.8.#X;X#XOX4.=.",
"1XqXrXsXuX5X+X@X=X>X1X5X9X9X9X5X1X>X1X1X1X1X1X1X1X1X1X1X5X0X=X:.;X1X>X>X>X>X>X>X>X>X>X>X>X>X;X9X+X-.T.=X%X%X;X>X>X>X>X>X;X%X=X;X;X;X;X>X1X1X>XOX:.Y.%X;X;XQ.Q.-."
};
