/* XPM */
static char *_cea93b014d841d28f2d2a8d57120f74RIRcWIpB0JiNQBgq[] = {
/* columns rows colors chars-per-pixel */
"80 80 239 2 ",
"   c #020201",
".  c #0A0202",
"X  c #040902",
"o  c #0B0A02",
"O  c #02010B",
"+  c #0A030B",
"@  c #03090A",
"#  c #0A090A",
"$  c #120403",
"%  c #130C01",
"&  c #13040C",
"*  c #140C0B",
"=  c #1B0907",
"-  c #131200",
";  c #1A1403",
":  c #1D1A01",
">  c #191707",
",  c #030113",
"<  c #0A0313",
"1  c #0B0A11",
"2  c #03011A",
"3  c #09031B",
"4  c #070A16",
"5  c #110712",
"6  c #1B1613",
"7  c #221C02",
"8  c #2A1E04",
"9  c #231D0A",
"0  c #24170D",
"q  c #271A14",
"w  c #232401",
"e  c #2A2500",
"r  c #2C2C02",
"t  c #2D2C0B",
"y  c #272508",
"u  c #332C01",
"i  c #3B2E00",
"p  c #332A0B",
"a  c #333401",
"s  c #3A3303",
"d  c #353A00",
"f  c #3B3B01",
"g  c #33340B",
"h  c #3D3B0B",
"j  c #363809",
"k  c #2A2911",
"l  c #342E15",
"z  c #343414",
"x  c #3C3B13",
"c  c #373717",
"v  c #2E3000",
"b  c #040021",
"n  c #0A0524",
"m  c #070028",
"M  c #1C1A24",
"N  c #3D383F",
"B  c #443D01",
"V  c #443508",
"C  c #423414",
"Z  c #3F4202",
"A  c #3C400D",
"S  c #414201",
"D  c #4B4403",
"F  c #484608",
"G  c #544F04",
"H  c #554A05",
"J  c #4B5202",
"K  c #525201",
"L  c #5A5401",
"P  c #575908",
"I  c #464714",
"U  c #4C5416",
"Y  c #565A17",
"T  c #625C01",
"R  c #695E05",
"E  c #5C6306",
"W  c #5E6017",
"Q  c #676200",
"!  c #686A04",
"~  c #736C01",
"^  c #6B7509",
"/  c #7E7D00",
"(  c #737D0C",
")  c #787A06",
"_  c #646917",
"`  c #6B731D",
"'  c #6C7711",
"]  c #757E14",
"[  c #747B1C",
"{  c #524D30",
"}  c #6C7725",
"|  c #737A24",
" . c #666728",
".. c #443A43",
"X. c #4B4751",
"o. c #534952",
"O. c #565050",
"+. c #807F25",
"@. c #7D8302",
"#. c #79860C",
"$. c #7B8415",
"%. c #7A861B",
"&. c #7A8327",
"*. c #7E8831",
"=. c #848401",
"-. c #8C8D00",
";. c #87880B",
":. c #918A05",
">. c #8D9102",
",. c #869109",
"<. c #939401",
"1. c #999500",
"2. c #9B9B00",
"3. c #9C9D0C",
"4. c #959C06",
"5. c #848917",
"6. c #928B15",
"7. c #87951C",
"8. c #979A17",
"9. c #A29B08",
"0. c #9EA000",
"q. c #98AA08",
"w. c #9DA916",
"e. c #9FB110",
"r. c #A6AC01",
"t. c #A9AC01",
"y. c #A4AA0B",
"u. c #A7A806",
"i. c #ACB609",
"p. c #B4B402",
"a. c #B7B608",
"s. c #A4AA1B",
"d. c #A9AA19",
"f. c #B4AE1C",
"g. c #B9AD1B",
"h. c #B6AE14",
"j. c #A3B313",
"k. c #ACB91D",
"l. c #A8B518",
"z. c #B5B413",
"x. c #BAB414",
"c. c #B5B21C",
"v. c #B9B31B",
"b. c #B6BB16",
"n. c #B5AD0C",
"m. c #828923",
"M. c #8D9620",
"N. c #959F24",
"B. c #9AA824",
"V. c #A7AC29",
"C. c #B5AD22",
"Z. c #B7AD28",
"A. c #A6B320",
"S. c #A8B522",
"D. c #A7B628",
"F. c #B5B223",
"G. c #BAB323",
"H. c #B7B328",
"J. c #B0AC37",
"K. c #C1BF00",
"L. c #C3B919",
"P. c #C2B527",
"I. c #BDC300",
"U. c #B4C11C",
"Y. c #C3C603",
"T. c #C9CC04",
"R. c #C8C70A",
"E. c #D3CE05",
"W. c #CDD300",
"Q. c #CAD30A",
"!. c #D2D600",
"~. c #D4DB02",
"^. c #DAD60C",
"/. c #D6DB0A",
"(. c #DCDA09",
"). c #D9D704",
"_. c #C7C616",
"`. c #D8D815",
"'. c #D6CE14",
"]. c #E0DB11",
"[. c #E2DE0D",
"{. c #DCE400",
"}. c #DAE80C",
"|. c #E2E401",
" X c #E4EC00",
".X c #ECED01",
"XX c #E5E609",
"oX c #F6EE00",
"OX c #FAED09",
"+X c #EBF601",
"@X c #EEFB00",
"#X c #E6F600",
"$X c #F5F401",
"%X c #FCF601",
"&X c #F6FC02",
"*X c #FFFA00",
"=X c #FEFF01",
"-X c #FEFC02",
";X c #F4F30A",
":X c #FDF60B",
">X c #F5FC0C",
",X c #FEFC0B",
"<X c #E6E813",
"1X c #F7EF12",
"2X c #FEF512",
"3X c #F6FB12",
"4X c #FEFC12",
"5X c #FFF419",
"6X c #FFFD1A",
"7X c #F0F116",
"8X c #D5D825",
"9X c #F9FE26",
"0X c #FBFE3F",
"qX c #FEFE4C",
"wX c #F9FA44",
"eX c #FFFD5F",
"rX c #FFFF66",
"tX c #FDFC79",
"yX c #B3B2AE",
"uX c #BEBCB6",
"iX c #AFAFAD",
"pX c #FDFD8B",
"aX c #FEFC83",
"sX c #FFFF9B",
"dX c #C2C1BD",
"fX c #FFFDAE",
"gX c #FFFFA3",
"hX c #FEFEB5",
"jX c #FFFCB9",
"kX c #CFD1CB",
"lX c #FFFCC2",
"zX c #FEFCD9",
"xX c #E6E6E8",
"cX c #FCFCED",
"vX c #F6FBE9",
"bX c #FDFEF3",
"nX c #FDFEFE",
"mX c #F8F8F8",
"MX c #EDEEF6",
/* pixels */
"  O   . O O       O X X X         ,             X         O X       X   X ,X%X,X=Xr..     X         X       O         . . O   X   O .   O   O     . O O .   O   ",
"      X X X     .       +     ,       <     O O       X ,   X x       # O ,X-X&X-XT.$   @ O   j   X ,     @ ,   O     X ,   O       O       X .     X X X       ",
"O X O @     # O .   < `       O   O ,     ,         O     o O D.X   O n r.%X*X-X*X$XD . X   . l., @ O @     @     <   ,         +   . X   @ O . O #     @ O X O ",
"      O O + O   X   X o B..   . , O       #             O   $ y.  O #   -X=X=X:X,X-XG .   + , d.. O     X   X       O   X X   O O a D.X O   O ,   O @ O O       ",
"X   = +X+X. . @ X ,     . i.b.. X @     X   , X         O   . s.  . O % -X-X4X*X%X,X#X% @ O   s.e.O @ O   O         , X     O + A.k.c     X X   @ . . +X+X=   X ",
", . Y.:X-X.XL .   , ,   + . + m.&.: O     O               @ 9 5.  X   @X,X*X-X%X4X=X,X.   X   . A..   @ X O     , X   O . y 7.$.. . . m X   + . . L .X-X:XY.. , ",
"  - _.,X:X-X<X=.Q .       3 O .   J y O   O X O X       O   &.. .   . =X,X4X=X4X*X%X-X$ b       h  ..         + X   o 3 O M.c   .   @   X # . Q =.<X-X:X,X_.-   ",
", o I.-X,X%X=X&X$XT   @ X   X   2 . | X ,             O   @ #.. . X q.*X%X=X%X-X=X,X=X+XO X X , $ [ , X   +     , O . w.s..   . , X       O R +X&X=X*X,X-XI.. , ",
"  . V $X*X*X=X,X*X^.-.. O X   X X + . w.J.. O               $.. X . t.*X*X=X,X*X=XOX=X,X, @   O # (   O X O   ,   x c.c..       X   X O . -.^.*X-X*X-X%X&Xs X O ",
"  O : W.,X*X,X-X*X-X&X3.8 >     .     O   7.5.h       X . O #..   < a.*X=X4X%X-X,X4X%X>X.   O     a t + X   . u h _     O O         > 8 3.&X-X*X,X=XoX-XQ.9     ",
".   4 w 2.=X*X=X,X=X%X,X(.t.- n . O     @ X . C     O     O #.. # . K.=X*X4X*X=X$X,X*X-Xr..     + e l +   y ( k.V . 4 X         n - t.(.,X%X=X,X4X*X=X9.u   X   ",
"s.,     F -X*X-X-X:X-X*X*X=X0.L               ,       o     *..   D &X*X=X=X=X,X,X,X*X*X+X. O   O d j.. . d h . O O O     O     L 0.=X*X*X-X:X-X%X,X,XD   ,     ",
"s.. X X 6 9.,X%X%X-X=X,X,X,X=X-XP O O . O O X X     @   X         L -X%X=X=X=X,X=X=X=X,X$Xn..       &..   X   .     . +   O . L -X=X,X,X,X=X-X%X-X-X4.-   ,   O ",
". ` O   O p ~.=X*X=X%X3X-X%X-X%X&X/ w         .       , X   O O . D .X=X:X*X=X*X4X=X$X%X4XK..   @   X O       O X O .   O w =.2X%X-X%X-X3X%X=X*X4X!.u O X       ",
"  t l o   # >.&X%X-X-X=X,X,X=X,X*X=X`.s t   O     O         O   . z.4X=X,X,X-X-X*X=X,X-X%X,XF     + X   X     X   , . k f W.,X%X,X=X,X,X=X-X-X%X@X<..   + . .   ",
"X l s . o X * 6.,X-X,X=X%X=X,X*X:X*X%X$X|.u O         X     X   . &X=X=X*X-X=X-X%X=X,X-X4X-XD   O X O     ,     X   t  X$X,X*X*X*X,X=X%X=X,X-X,X<.; O     f V.. ",
"X O ] .   X X K &X=X-X*X,X-X,X%X4X%X,X%X-XT.f . O   X @         & ,X%X,X=X3X=X=X=X=X3X=X,X%X>X&         @ X   O . f T.-X%X,X%X4X%X,X-X,X*X-X=X&XK , O   . k.g   ",
"O   + %.w X   w / <X=X%X,X4X$X,X-X-X$X-X1X=X>XQ ; .       X   O B >X,X*X%X,X=X*X*X=X,X%X*X,X>XB O   X       . ; Q >X=X1X-X$X-X-X,X$X4X,X%X=X<X/ -   X   r #.O   ",
"O     # i.. + O % <.=X=X*X2X=X=X&X-X-X,X=X%X*X,Xp.;.%   @   X   3X-X%X%X,X,X-X4X4X-X,X,X%X%X-X3X  X   @   % ;.p.,X*X%X=X,X-X-X&X=X=X2X*X=X=X<.% .     . k.l ,   ",
"O       l.3 . X . K XX=X=X%X*X=X,X*X-X:X%X,X4X%X-XXXT 6   O . }.=X%X,X-X-X&X%X-X-X%X&X-X-X,X%X=X}.. O   6 T XX-X%X4X,X%X:X-X*X,X=X=X%X=X=XXXK . , X . 8.; . O   ",
"  @ @   $ (       % / $X%X,X,X&X:X=X=X-X4X-X*X,X,X;X4Xr.i ~ -X*X=X,X-X-X$X=X-X*X*X-X=X&X-X-X,X=X*X-X~ i r.4X;X,X,X-X-X4X-X=X=X:X-X,X,X%X$X/ $   X X , j.O # X O ",
"  @     . r F     . G 3X,X%X%X-X*X%X-X$X-X4X-X-X*X=X$X-X&X-X,X%X%X*X-X-X=X*X:X*X*X:X*X=X-X-X*X%X%X,X-X&X-X$X=X*X-X-X4X-X$X-X%X*X-X%X%X,X3XG .   ,   $.. .   #   ",
"      X X   %..   X % / 6X=X%X-X=X,X*X=X,X:X-X,X,X=X4X:X-X:X*X=X4X,X-X&X*X-X=X-X-X=X-X=X-X-X,X4X=X*X:X-X:X4X=X,X,X-X:X,X=X*X,X=X-X%X=X6X/ % X     : Y . O o   . ",
"    .   2 X 1 8.      . 2.$X,X:X,X-X-X=X=X=X*X*X=X-X,X%X=X=X-X&X*X-X,X*X=X2X-X=X=X-X2X=X*X,X-X*X&X,X*X=X%X,X-X=X*X*X=X=X=X-X-X,X:X,X$X2..         g a O   O   . ",
"  O X X ,     j.. . O X D &X-X*X,X$X=X,X*X=X*X4X,X-X-X-X5X%X6X-X=X4X$X=X&XOX*X2X*X=X%X:X*X*X%X=X%X,X-X=X-X=X*X=X4X*X=X*X,X=X$X,X-X%X&XS O O O X . g g     O     ",
"O #     , X O . l.  X     ~ %X4X$X4X=X%X-X:X=X-X-X*X=X=X-X=XfXmXnXbXnXnXnX6X-X&X,X*X4X,X=X=X-X;X-X,X$X=X2X,X=X=X-X=X:X-X%X=X4X$X%X-X~ .     . X y ! .     O   X ",
"      X         F U . < O : ).*X6X*X*X-X%X,X*X*X=X=X,X*X*X&XjXnXnXnXnXbXmX*X>X=X:X9XpXpXpXpXpXgXaXrX:X=X,X,X,X=X*X*X,X%X-X*X*X6X-XW.7 O X X   O A..     < X   O ",
"  3         X   @ +.. X   O Z %XoX=X*X4X-X-X,X*X,X=X=X*X-X&XhXnXbXnXnXcXbX=X4X%X*XqX{ M M 5 uXmXnXjX6X=X*X=X*X*X*X,X-X-X4X*X=XoX$XF         X . D.O O         O ",
"        1     , X s f O     O 9.-X$X-X*X-X:X,X*X*X-X-X*X-X=XjXnXvXnXnXnXmX=X$X,X%XqXO.O O   iXnXnXjX-X*X*X=X*X=X*X,X:X-X*X-X$X-X0., 2     O . V.  X     O @     ",
"X   O         X     ` 9 X   . f `.,X=X,X-X-X,X=X=X-X-X%X-X=XgXbXnXxXMXkXmX=X&X-X,XqXX.      uXnXnXhX-X*X*X-X:X*X=X,X-X-X,X=X,X`.F   X     < o ,., O X   ,   O   ",
"    . , . O       O . k.  . < X r 9X%X2X=X=X:X*X=X=X=X*X-X:XjXnXbX. O   nX%X4X*X%X0XN X     kXmXnXlX=X,X*X=X:X-X*X:X=X=X2X%X9Xr X O     O . 5..   O O < X   @   ",
"  g B..     O   X O   - 8..   X . <.=X%X%X,X%X=X-X*X,X=X=X&XhXnXmX  X X nX-X$X=X*XqXX.X   + iXnXnXhX=X,X=X-X-X*X=X%X,X%X%X=X<.. X O . 2 X + ;.O   X O   X     , ",
"O     j.. < .       O O j..       7 W.*X:X,X-X4X*X=X-X-X*X&XfXnXMX  X   bX4X-X-X*XqXo.X     iXnXnXjX-X-X*X=X*X=X,X=X-X=X*X'.8       X O   x f O   O O     O   O ",
"    < 7.7 . X   , X   + . ^ , O @ . u.=X*X:X=X=X*X,X=X*X=X,XjXnXvX+   . nX$X=X*X=XwXo.    @ yXnXnXjX-X-X*X=X-X=X=X=X,X=X;Xt..   +       , A r .         . % X   ",
"    O   P {         , .     o     O e p.=X-X*X-X,X2X=X*X=X,XlXnXbX+ O   nX,X:X*X-XwX..    O dXmXnXjX-X-X*X=X*X=X;X4X%X-Xb.e       ,   . + #.O   X     @ . &.    ",
"  + O X o ] O       ,   O 3     . O   * &X,X,X*X=X4X=X*X*X-XjXbXcX+ X X vX-X-X*X%XwXMXkXxXxXbXnXnXjX-X-X*X=X*X=X-X,X%X-X% O X       < + 4.o   X   X #   . $..   ",
"O   O   . ( O X       X ,   , X . O @ X s -.-X*X=X:X=X*X*X&XjXnXMXO   @ nX-X=X%X=XqXnXmXnXnXnXmXnXjX-X-X*X=X*X=X-X*X5X&X.     O X   . + y.. <   , X O   . $..   ",
"  O   X   j r             O O     o O O   q W.%X=X-X-X*X=X>XfXnXnXnXbXnXbX4X=X,X*XwXnXnXnXnXnXnXnXjX-X-X*X=X*X=X*X;X X& O X o   X 2 . e.. O O X     X   5 ) . # ",
"O   @     r g         O   X   # X   O   O   L -X-X=X&X=X*X,XeXaXtXtXtXaXtX-X%X-X*XwXnXnXnXnXnXnXnXjX-X-X*X=X-X=X-X_..                 Y X       X , X   O 5..   ",
"  <     O z r O .   @ O   @ X   O # .   X X . $X,X*X:X*X*X%X=X&X-X:X=X-X>X*X-X4X=XwXnXnXnXnXnXnXnXjX-X-X*X=X*X=X:X= X @     O             O X           + Z p O ",
"  O   O   x g O     X         O X . O X O X . .X-X-X%X-X*X=X,X-X*X*X*X*X*X*X*X*X-XrXnXcXbXnXbXnXnXfX-X=X*X-X=X=X@X. X     . ,       O     X   O       . . j j   ",
"  X       a d     X ,     O   X     O   O   = $X-X-X=X4X=X=X,X=X-X-X-X-X-X-X-X-X=XqXzXzXcXmXzXzXbXsX=X*X,X:X,X-X;X+ X X   . O X   O ,     2   O         . . &.. ",
"O       + e g .       . . I           X   + I.4X-X*X-X`.^.`.`.`.^.^.^.^.^.^.^.^.).^.8X~./.`.`.`././.!.^.-X%X*X,X*XR O X O O   X ,   # X               2   . $.. ",
"X X     . B.a , O X . < . ) 3   .   @ X . :.~.-X-X*X-Xv.x.F.v.v.v.v.v.v.v.v.v.v.v.v.c.f.g.g.g.h.h.v.H.G.,X*X*X=X4X$XD .   @ ,     .   O O     O . O @     O % 8.",
"  O     . | .     X O s.j..           , =.-X4X=X*X=X-XF.c.F.z.n.c.c.c.c.c.c.c.c.F.F.v.F.v.x.v.G.P.x.c.a.=X-X-X-X-X=X:X>XX   @ O O   &.S.O . X     +         + s.",
"    X   . ` .       > 5.+ O     @     ; -X*X,X-X*X=X-Xx.x.G.f.c.c.c.c.c.c.c.c.c.i.c.z.F.z.z.z.c.c.h.G.G.$X=X,X,X4X:X:X,X7     . X   O j.: . O   O     X @ O O N.",
"O       X X ,     % Y O O O       O u p.=X=X:X-X=X-X-X^.'._.Z.Z.c.c.c.c.c.c.c.c.F.F.v.c.z.F.z.c.H.x.^.`.,X-X,X-X*X%X=X=X-XR . X   X . P l.O O X @     O O       ",
"    ,   X   @   O a t .   X     X O y.-X=X=X-X=X-X-X=X=X-XXXx.z.c.c.c.c.c.c.c.c.v.g.z.c.z.J.v.x.c.R.%X5X-X-X-X*X*X=X4X*X:Xp.< X O   . + i.O .       ,   O   + , ",
"  O O     X ,   . %.  O       X X 7 E.%X6X=X$X=X,X*X=X=X:X].L.C.g.v.h.c.F.d.c.z.c.z.i.b.d.f.P.n.g.'.;X=X=X*X*X-X=X$X=X6X%XE.7 X       O * ]       X   . O   O   ",
"              ; B.O O ,   , X   O 3.-X=X$X-X=X*X=X*X*X=X=X=X&X-X-XXXx.f.F.c.G.C.Z.G.C.F.v.R.3X=X$X-X=X=X-X,X-X*X*X=X,X$X=X-X3.  X     o   a x O @ X 3   O   O   ",
"X n     + O z _ .     @ O       u  X=X=X=X4X*X%X=X=X-X-X-X=X=X-X=XXXL.C.c.n.x.g.h.v.f.G.x.R.;X=X=X=X-X-X,X,X=X=X:X*X4X=X=X=X Xu   ,       . 5.. .     @       O ",
"O   X     t F .   4 O       . S ].,X-X=X-X$X=X=X%X*X*X-X,X-X:X,X=X=X$X;X;X.X;X;X$X$X$X$X.X;X,X=X:X-X*X=X-X=X=X=X-X=X$X-X=X*X,X].S     , , + o m.M.O O   O X     ",
"X     + o ^ <               + 3.*X:X:X%X-X=X%X=X,X-X*X=X=X=X*X,X,X*X-X=X-X,X,X*X,X=X=X=X=X=X-X%X,X-X=X=X=X*X,X,X*X%X=X-X%X:X:X*X4.. O       X < . $.X           ",
"  @ . O e.O   , O   X   @ , i &X=X%X,X=X$X=X-X%X=X=X*X*X=X*X*X*X=X=X=X=X=X-X=X*X*X-X-X=X=X=X=X=X*X*X*X*X*X=X=X-X%X-X=X$X=X,X*X=X&XB .   O 4     + r Z     O X 2 ",
"    O U _ +   O   O . O , : {.*X,X=X=X-X=X-X*X,X*X=X*X,X,X,X-X-X*X*X,X,X*X*X*X*X*X*X-X-X-X*X-X*X=X=X*X-X=X=X*X*X,X*X-X=X-X=X=X,X,X!.=   @ X O     O #.O . . O X ",
"  O . S.. . X X   @ .   O ! &X:X=X;X-X=X,X*X=X-X*X-X-X*X=X=X-X=X=X*X*X*X-X,X-X*X=X=X*X*X=X-X*X,X*X*X-X,X*X*X*X-X-X=X*X,X=X-X;X=X%X&X~ .   ,     O   > ,.5..     ",
"  O } %     ,         O B -X%X6X=X*X,X-X=X=X:X=X&X,X,X$X,X-X=X,X:X-X=X-X=X=X-X,X=X,X=X%X,X-X=X,X=X=X=X%X*X=X-X-X=X:X=X=X-X,X*X=X6X%X-XB         O   X   o %.O . ",
"  O ' X 3       X X   . 2.=X*X-X%X=X-X,X$X-X4X=X6X-X*X=X%X4X4X*X=X=X$X|.|.$X$X|.|.;X.X.X*X=X%X=X*X2X4X=X*X*X-X=X=X,X-X$X,X-X=X%X-X*X=X2..   X X         < t d . ",
"O r k O   +         - 5.$X=X*X=X:X-X$X,X=X=X%X%X%X=X=X,X-X*X).-X>X<.e . O . O , . O < . 8.2.0.<.=X,XoX*X4X:X*X,X%X%X=X=X,X$X-X:X=X*X=X$X5.-       o O   o > J   ",
". ` . O     ,       J >X=X=X,X:X-X,X%X=X*X=X-X,X-X=X*X$X&X>Xy.C a o   O X X X   O X X @   O O . i b.>X&X=X=X%X2X,X-X=X*X=X%X,X-X:X,X=X=X>XJ     1   2 O   , : %.",
"* ^   O   @       - @.$X-X-X-X4X=X%X=X=X$X4X:X$X,X$X,Xu.s u - . . . O O     .           O O . . . - e s u.-X=X*X$X:X4X$X=X=X%X=X4X-X-X-X$X@.-   X     o     ,   ",
"% |   X   O X   + P /.,X-X%X-X=X=X-X*X*X4X4X&X=X-X<XL 0     @ X X     @     . + .           X     @ @   0 Q XX=X=X&X4X4X*X*X-X=X=X-X%X-X,X/.P +   O @   O ,     ",
" .+   X O   X . % 1.=X=X$X4X=X-X,X4X*X%X4X&X-X3Xp.;.% ,     O   O   X X   , O                 @       @ , . 5.p.3X-X&X4X%X*X4X,X-X=X4X$X=X=X1.% O     O   X   , ",
". .           - ( .X-X-X,X:X*X,X=X%X=X,X%X=X4XR % . X     X . O O O O .         O     O   . O . . . @       X * R 4X=X%X,X=X%X=X,X*X:X,X-X-X.X( : O X , X O     ",
"X       X @   P ,X%X=X=X*X=X=X:X-X*X%X=X-XY.S .     O X     +                                         X   O     . D Y.=X*X=X,X&X:X=X=X*X=X=X%X,XP   @ X       X ",
",   O 1 O   ; >.%X,X-X*X*X,X%X=X%X=X,X$X{.u .     O   O           .     6                         ,           + O   u {.:X$X$X6X=X%X,X*X*X-X,X%X>.;   O 1 O   , ",
"          . 6.-X=X=X-X4X,X=X*X%X4X,XT.B u O   X     X   X     # . % h Z } U   .                 F Z % O . O       #   w V ).-X*X%X*X=X,X4X-X=X=X-X6..           ",
"    X   O u !.*X$X,X,X%X=X%X,X,X@X=.e     X     , X O   O   ` [ &.` : l       O                 k : ^ 5.#._ . . O     o O e :.&X,X,X%X=X%X,X,X$X*X!.u O   X     ",
",       : 2.-X4X,XOX,X,X*X-X,X-XP . O @     o O O . . + . k.d . o       @                         O O . ; A.U.+ . . ,     @ . K -X,X-X*X,X,XOX,X4X-X2.9       , ",
"  O X O G $X=X%X%X*X=X=X&X-Xu.T O O X     2 . % . B A.w.w.. . O     O     X                           O   O . w.s.l.a - O   #   T u.-X&X=X=X*X*X%X=X$XG O X O   ",
"  , X u 1.4X-X=X=X6X%X$X{.y.% , O   . . S z ! } ' Y . . , ,   X   O @   @     O                   X @     +   O O < P ' I k ,   , % y.{.$X%X6X=X=X-X4X1.u X ,   ",
"    7 Q.=X*X=X-X=X,X,X9.8 : O X   O W m.s y .     O       X                 X                   X O         X X X     5 p D ,.. X O : 8 9.,X,X=X-X=X*X=XQ.7     ",
"  . B #X,X-X%X,X*X|.;.$     X O & l.d O   ,                     O X       O               O     ,     @     @     <     O b . B.. . X O o -.[.%X:X*X=X=X+Xs .   ",
"@ o a.,X%X*X,X@X7XT O     . ( d.w., .   O   O                           1 .   . . . . o .     .   @     @ X           X   O . . V.#.O O @ O R 7X$X=X%X%X,Xp..   ",
"  % I.*X4X*X|.;._ O X z I $.8 +   O   X     # O                     O   O - E ] #.( m.[ _ f s j   X X         @             . b . 5.l . X   . E ;.XX,X%X:XT..   ",
"O . Y.-X=X.XL . . w m.s l .   X   O O X   ,                         X   . ! +     . . . . 9 y z } X   <     O , O X   O 1   X < . . E O X ,   X . D  X,X=XI..   ",
"  . $ #X#X. . # J.) O     X             4   X X                 X O O   q.< . O         . X X   1 O O     o           O O           .     , X X O 1 $ >X+X& O   ",
". #   2 @   [ s.. X   , X     , ,     X   O                       X   B.o .   O       @       @ X   , ,             X                     O   2 X   O . . . X   ",
"X X O . $.&.w X X @   . + O O O         @     O                       O   O b X X       X   X   O @             X       X     O     ,   X X n   X   O   1       ",
"O   O o O . O   . O X @               O                           O . .   O   X       O   O                 X   O       O   X     O O     X   . O X     X   O   "
};
