/* XPM */
static char *_d4009450db04bd7c23848817d9e52f5zgPDbXMysgOj0tYs[] = {
/* columns rows colors chars-per-pixel */
"80 80 13 1 ",
"  c #2B2D2B",
". c #2E2F2E",
"X c #2E302E",
"o c gray19",
"O c #323432",
"+ c #343634",
"@ c #363936",
"# c #393B39",
"$ c #3B3D3B",
"% c #3D3F3D",
"& c #3E413E",
"* c #404340",
"= c #414441",
/* pixels */
"&&&&&%%$%%&&&&&&&=====*&&&&&&&&%#++OoooooooOO@@@$&**&*&&*&*&&&******&Oooo%%&&==*",
"%%%&&%$++OooooOO@#%*=&&&%%%%%%&$@@+OOooooooOOO@#$&&&**&&&&&&&&&*&&*&%oXoo%$%&***",
"$%%$+oXooXoooooXooOO#&%%%&%%%%%&&&&&&&&&&&&&&&****&&#oO@&&&&+oO+&&&%%#Xo#%%%%*&*",
"$%%OXo.XoXooXXXXXooXX@%%%$%$$$$$%%%%&$%&%&&***&&&&%#XXXo@%&oXoooo&%$%%%%$%%%%&&&",
"$%%XoooXooooXooXooXooo%%%$$##+OooXooO+$%&&&&&%&%$$#X..XXX#$o...XX$$$$$##$$$$$%%%",
"%%$OooooooooXXXXooXXX@%$%#+XoooooXXoXoXO@%%&%%#####X.X.X.@@@oXXX@$%$$#$$%%$$#%%%",
"%$%$@oooooooXXoXoXoo+%%%%X.oo.XoooooXXXXX+%#@.XO###o.X.oX@@@##@$$$$$$$$$$$$$#$$$",
"%%$$$###OOoooXoo++#%%%%%%XoooXooooXXXXXXXX##XXXo###O..Xoo+@######$$$#########$$%",
"%%%%%$%%$&&&%%%%%%%#+%%%%+oXoXXXXXXX.....o##..Xo#@++oooo@++@##@@O+OoXXXoooo+##$$",
"%%%$%$%%%%&&%$%%%%%@oXo%$#+XX..XXoooo..XO###OoX+@++@@@@@@@@@##oXoooooXXX.X..oO#$",
"%%%%%$%%%&&%$$%%$$%%oXXo##@#@oooXXXX.oO@#@@@@@@@@++@@@@@@@###o.oooooXXX......XX$",
"%%%$$$$$@OoXXXooO+#%%o.X.o###############@@@@@@@@#@###@@@@@@#ooXXooXX....XXoo.o%",
"%%%$$#oXXooXoXoXXXXX@$O.XXo@@###########@@@@@@@@@@@###@@@@####OXX.....XXXXoooO&&",
"%&$%+.oXXooXXo..X.XXX+##...@###O.o+####@@@oooXXXooo+#@@$####$##@+Oo.Xooooo+O$$%&",
"%%$+XX.XXoo.XX..XXX.XXO$+..O$#O..XX+@@+Oo.ooXXXX.....$$$$###$##@$%%$%%$$###$$$%&",
"&%$oX.XXXXXXX.XXX.XXX.o##oX+#$....Xo@@oOo.XXX....X.Xo$$$#$$$%%$$%$$$$$$$$##$%$$%",
"%%$oX...XXXXX..XXX.XX..##@@##$...X.X@+OOoOooX...oX+#$$$#$%%$%&$$$%$$$$$$$##$$$$%",
"&&%+..XXXoXXXXXX......o$@#####......+++ooOO+@#@###$$##$$$%$+oXX.Xo+$$$#$#@#oX#$#",
"%%@@o...XX.X.XX......X@@++@+++O....o+++OOo+@#$##$$$$$$#$$@Xo.X.Xooo+#####@OooO$$",
"%$##+Oo.X..X .......O@#@@@@@@@+o.oo@@+++O+@####+oXoo+$$##XXXXXXXXXXo$$$$##ooXo$$",
"$#+++@@@+XX.. XXXo@@+@@@+@++++@++@@@+++#+@@###oXXXoXXo$##+X.X....oX@$$$##@o.oo$&",
"#@+@@@@@@@#+@##@@@#@@#@+++O+++++#@@@####@###$OXXXoXXXXO$##@oooXXo+$$#$#$$#oooo%&",
"#+@@@++@@##@@@##@@@@@++OXo.....X.ooo@@#####$#XooXXXXXXX#####$$$#$$$$$$%%$$oXXo%&",
"@@+@+oX.Xo.X+@@@#@+++o..X.......XXo.XXoO#$#$$XX.XXoXXXX#$#$$$$$##%&&%%%&$$+XX+%&",
"#@@OX..Xo..XoO##@+++........XXX.XXoX.....###$OXXX...XXO$$#$$#%%%$%&%$%%&$$$oo%%&",
"+@@....Xo..X..@@@#@@XX....XoX.XXX.X..XXXX@#$$$oX..oXXo$$$$%%%%%$@OooooO+$$$%%%%&",
"@+@oX...X....O@@@#@@+o..XX.o.XX.....XXX+$%$$$$$+oXXo+$$$$$%$$$#XXXXoXXXXX#%%%%%&",
"@##@@oX...Xo@@@@@@#++++++oo..X....XoO#$$$%%%%$%$%$$$%%&&%$$$$$oo.XooooXooo%%%%%&",
"####@@#####@@#@++#@++++###@###$$$#%$%%%%%%%&%%&%%%%&&@OoO#$$$$OoXXoooooooX$%%%&&",
"####@@##@@@@@@+++@++++#@########$$%%%%&%%%%%&&&%&%%%+ooXXo+%%$#ooooooXXXo@%%%$@O",
"..XXXo+@@++@@O+@@@+@@#$$$$####$$$%%%@@OoooooOoO@$$$$ooooooo%%%%%@OooXoO+##$+oooo",
"X.X......o+++@++@+OoX.oXoXo@$$$$%%%XoooXoooXoXoXo$$%ooooooO&&&%&%%$%$$$$##oXooXo",
"XXXX.......#@@#@ooX.oXo...XXo$%%%%%$@OOooooooo+@%%%%@ooooo@%&&&%%$$%$$$$$#oXXXXo",
"......X..XX@@+@X.X.XoX....X.Xo&&&%%%%%%%%%&%%%%%%%&%&$ooo@&&&&%%%$$$%$$$$$+XXooX",
"........XO#####oXo.XX.oXXXoooO&&%%%%$$$$&&&%%%%%&%%%%%%&&&&&&%%$#oO$%$%%#$#+Xooo",
"oXoXoOO####@###@oo..XoooXoooo#%%%%%$$%%%%%%%%%$%%$%%&%%&&&&&%%$$oooX%$%%$$##$#+O",
"%##########@#####@ooXX.Xoo+#$%$$%%%%%%%%$%%%$$$$@OooooO@$&%%%$%+oooo#$$$$$$$$%%%",
"$$###+#####@#@+@###$$$##$$$#%%%&&%%%+oXo@$$$$%OXoXoooXOoo+%%$$$OooXXO$$#..o+%%%&",
"##@##@@###@+@@@####@###$$$$$&%&&&%$+oXXXo+%%%OoooooXooooooO%%%%XXooXo$%X..oo%%%&",
"$@###+@#@@@+X..Xo+##$#%%$$$%%%%&%%%oXXoooo$$%oooooooooooooo&&%%XXXXXX$$+oXX@$%%%",
"@+##@@+@@@+ .....X+#$%%%$$%%$%%%%$$+ooXooO%&%OooXoXXoooooo+&%%%ooooX.$#$$#$$$%%%",
"@@@#Oo+@@@X.X..XXXX#$$$$$$%$$%$$$$%$OoooO$$$$$+ooooXoooXoO&%%%%oXXoXX##$####$%%%",
"+@@@..+@@+......XXX#@$$$$$$%%%%$$%$%%%$$$$$$$%%%@OXooOo@%%%%$$$oXXXXO##$#Oo+#%%%",
"#+#@..+##+O.X....o+@@$$#$$+OooooO+$$%$$$$$$$$$$$$$&&&%$$$$#$$##OXXXXO##$#Xoo#%%%",
"@@#OXXO@@@@+o.ooo@##@$$$@ooOooooooo+$$$$$$$$$$$$$%%%%%#######$##oXoo$#$$OXXXO$%%",
"@@#o..o@+@@@@@####$##$$$oooooXoXoooo$$$OoXoXXO$#%%%%$$###@#@##@@+oX@####....o$$%",
"@@@XXXo@@@@@@+@######$$$+oooXXXXooo+$$ooooXX.Xo#$$OX.X#@@@@@#@@+@@######...XX$$%",
"+@@X.oo+@@@+++#@#$$$#$$%%$+o.XXXoO@#$$oooXX.oXo$$oXXX.X@@@@@X.o+@@#@#@@@...oX$%%",
"O@@X..o@@@+@@oooooXoO#$$$$$####$$$#$###OoXXooO#$OX.....o@++X...X@@####@#.Xo.o$$#",
"+@@X...@@@@oXoooXXo..Xo@$####$$$$$@$$$$$$####@$$X.......+++.....+@@@##@@o...o#$$",
"+@@XXX.#@+o........o.oXo@#####$#$##$$$#@#$@#@##@X...XX..++O..X..O#####@@O...@###",
"+@@X.X.#@o...XXX..XX.XXo+$$$$OOo.Xooo@###@@@@##@oXX...o.@@o..X..o###$$@#@oXO####",
"@@@....@@.....XXXX.X.oXoo##@oXXXXXXXXXX#@#@#$$#@oo..X..o@@oX...Xo$#$##@@+@@###@@",
"#+#o..X@@X.....XXoooXoooo$$oooX...X..ooo#@@$$##@+.....X@++......o#$#$$@@@@@#+++@",
"@O@....@@o..oXoooXXooooo+$$ooXXooo.Xoooo@#@##@@@@+o..o++++.....XX$$##$@@@@@++++@",
"++#oX.o@#@X...XXXXXoXoXX%%$#XooXX..XXoo+@@##@@@@@+++@@@@@@.....XX$##$#ooX.XoO++@",
"#+#oX.X####ooXXXXXXXXXO$$%$$#OoX..XXoO@@@#@oo.XX.o+@@+@+##XXX...o#$##oX.....oo++",
"#@#X..X#####+Oooo.XO@$$$$$$$########@@@@@oXoXXXX..XX@@@@##.......$$$oX.XX....Xo@",
"###o.XX@##$$#@#$$$##$%$$$$#$@######@@@@#o....XXXX....@@@@@X...XXo#$#.XXXXX.XX.X#",
"###OXXO#$#$##$#$$$#$$%%%$$#@@#@#@@@@@@#oXX....X.XX..Xo#@#@oXooX.O#@@XoXXXXoooo.#",
"###@ooO########++ooXooXoooooo+@@#@+++@+ooX..X....X....@##$@ooXXXO@@@oXXX.oXXX.X@",
"#@@@XX+####@OoXo...XXXXXoXXXooo.o++@@@oX.XX..XX.X.XX..o####ooXXo#@@++oX.o.XXXX@#",
"##@#oo#$###X..XXoX.oXoXXoooooXX.o.@@@@X.XXX.oXXXX.X..oo@@##OX.oO@#@#@#OoXoooo###",
"##@#Oo#$###oXoXXXX.oXooooooo.XXX.X@@@@...ooXXX.X.oXoXXo@###@oXo@######@@@@@@@##$",
"##@$###$$$$#+Ooo...............Xo@@@@@X.XX.XXoXoXXXoXX.+#@@@@@@@@@@#@@#@#@@@#$$$",
"$$#$###$$$$$$$#+oXooX...XooXoo++++@@@@XX.XXo.XXooXXoXXo@#@#@@OoooooO@@#@#@@@$###",
"$$#$$$$#$$$$$$$$$$$$###@#@+@@@@@@@@###+..XX.oooXoooXoo@#$$$#OoooooXoo####@@@####",
"$$%$$$%$#@#$######$$##@@#@@@@@@@@@@@@@@oXXooXXXXXoooXo##$$$ooooXX....X#@@+@@####",
"$$%&$$%#ooooooXO@#$#$##########@####@@##oooXoXooooooo#$#$$$oooXoXXX...@@@@o.XO##",
"$$%&%%+XXoooooXX.o#$$$#################$#OoXXXoXoooO####$#$XXX.XXoX...#@@+....+$",
"$$&%$ooXXoXoXo.oXXX#$$##@##@###@###@##$$$$@OoooooO#######$$OXX.......o#@@o.XXXo$",
"$$%%+ooXXXXXXX.XXXX+$##OoXXoO@######$$##$$$##$$$###$$OXXO$$#o.X.....o#$##X.XXXo$",
"$$%$ooo.ooXXXoX...Xo##o.Xo.o.o@#$$$@OOoooOoo@$$#####OXX.X@$$#+X...XO#$$##.X.XXX$",
"#@#$ooX.XXXX.......X@#......oX###OooooooX.XXooo##@@@X..Xoo$#@#@@@@@####@@oX..XO$",
"##$$OoXX...XXX...XXo@@O...XXXo$$oXooooooooXXXXX.###@..o.XX$$$@##@######@#OXXXX#$",
"##$$#oXo...XXX.X.oX##$#+XXXO@$$OXXXooooX........o###X....X$$$##########@##Ooo@$$",
"$$$$%%OXX.XXXX...o$$$$$#$$$$%%$XXXXXXXX.XX.XXX.XX###O..XoO$$#######OXoO@###$$$$$",
"$$$$%%%#+OXX.oO@##$$$$$$$$$%$$$ooXXXXXooX.XooXoXo####OXoO$$$##@###OooXo+$$$$$$$$",
"#$$$%$$%%$$$%%$$$#%%%%$%%%%%%%%+ooooooXXXoooooooo$$$$$$$$$$$$$#$#$oooXoX$$$$$$$%",
"$$$$$%$%%%$$$%%$$$%%%%%$$$%$%%%%+oooooooXoooXXoo$$$$$$$$$$$$$$###$XoXXXX$$$$%%%%"
};
